<svg width="450" height="808" viewBox="0 0 450 808" fill="none" xmlns="http://www.w3.org/2000/svg">
<g clip-path="url(#clip0_366_2512)">
<path d="M30.3851 9.85449H9.43392C8.7779 9.85449 8.24609 10.3889 8.24609 11.0481C8.24609 11.7073 8.7779 12.2416 9.43392 12.2416H30.3851C31.0412 12.2416 31.573 11.7073 31.573 11.0481C31.573 10.3889 31.0412 9.85449 30.3851 9.85449Z" fill="white"/>
<path d="M21.0983 0.521704C21.0983 -0.137491 20.5665 -0.671875 19.9105 -0.671875C19.2545 -0.671875 18.7227 -0.137491 18.7227 0.521704V21.5743C18.7227 22.2335 19.2545 22.7679 19.9105 22.7679C20.5665 22.7679 21.0983 22.2335 21.0983 21.5743V0.521704Z" fill="white"/>
<path d="M77.0394 9.85449H56.0882C55.4322 9.85449 54.9004 10.3889 54.9004 11.0481C54.9004 11.7073 55.4322 12.2416 56.0882 12.2416H77.0394C77.6955 12.2416 78.2273 11.7073 78.2273 11.0481C78.2273 10.3889 77.6955 9.85449 77.0394 9.85449Z" fill="white"/>
<path d="M67.7516 0.521704C67.7516 -0.137491 67.2198 -0.671875 66.5638 -0.671875C65.9078 -0.671875 65.376 -0.137491 65.376 0.521704V21.5743C65.376 22.2335 65.9078 22.7679 66.5638 22.7679C67.2198 22.7679 67.7516 22.2335 67.7516 21.5743V0.521704Z" fill="white"/>
<path d="M123.693 9.85449H102.742C102.086 9.85449 101.554 10.3889 101.554 11.0481C101.554 11.7073 102.086 12.2416 102.742 12.2416H123.693C124.349 12.2416 124.881 11.7073 124.881 11.0481C124.881 10.3889 124.349 9.85449 123.693 9.85449Z" fill="white"/>
<path d="M114.405 0.521704C114.405 -0.137491 113.873 -0.671875 113.217 -0.671875C112.561 -0.671875 112.029 -0.137491 112.029 0.521704V21.5743C112.029 22.2335 112.561 22.7679 113.217 22.7679C113.873 22.7679 114.405 22.2335 114.405 21.5743V0.521704Z" fill="white"/>
<path d="M170.347 9.85449H149.396C148.74 9.85449 148.208 10.3889 148.208 11.0481C148.208 11.7073 148.74 12.2416 149.396 12.2416H170.347C171.003 12.2416 171.535 11.7073 171.535 11.0481C171.535 10.3889 171.003 9.85449 170.347 9.85449Z" fill="white"/>
<path d="M161.059 0.521704C161.059 -0.137491 160.527 -0.671875 159.871 -0.671875C159.215 -0.671875 158.684 -0.137491 158.684 0.521704V21.5743C158.684 22.2335 159.215 22.7679 159.871 22.7679C160.527 22.7679 161.059 22.2335 161.059 21.5743V0.521704Z" fill="white"/>
<path d="M217 9.85449H196.049C195.393 9.85449 194.861 10.3889 194.861 11.0481C194.861 11.7073 195.393 12.2416 196.049 12.2416H217C217.656 12.2416 218.188 11.7073 218.188 11.0481C218.188 10.3889 217.656 9.85449 217 9.85449Z" fill="white"/>
<path d="M207.713 0.521704C207.713 -0.137491 207.181 -0.671875 206.525 -0.671875C205.869 -0.671875 205.337 -0.137491 205.337 0.521704V21.5743C205.337 22.2335 205.869 22.7679 206.525 22.7679C207.181 22.7679 207.713 22.2335 207.713 21.5743V0.521704Z" fill="white"/>
<path d="M263.655 9.85449H242.703C242.047 9.85449 241.516 10.3889 241.516 11.0481C241.516 11.7073 242.047 12.2416 242.703 12.2416H263.655C264.311 12.2416 264.842 11.7073 264.842 11.0481C264.842 10.3889 264.311 9.85449 263.655 9.85449Z" fill="white"/>
<path d="M254.367 0.521704C254.367 -0.137491 253.835 -0.671875 253.179 -0.671875C252.523 -0.671875 251.991 -0.137491 251.991 0.521704V21.5743C251.991 22.2335 252.523 22.7679 253.179 22.7679C253.835 22.7679 254.367 22.2335 254.367 21.5743V0.521704Z" fill="white"/>
<path d="M310.308 9.85449H289.357C288.701 9.85449 288.169 10.3889 288.169 11.0481C288.169 11.7073 288.701 12.2416 289.357 12.2416H310.308C310.964 12.2416 311.496 11.7073 311.496 11.0481C311.496 10.3889 310.964 9.85449 310.308 9.85449Z" fill="white"/>
<path d="M301.02 0.521704C301.02 -0.137491 300.488 -0.671875 299.832 -0.671875C299.176 -0.671875 298.645 -0.137491 298.645 0.521704V21.5743C298.645 22.2335 299.176 22.7679 299.832 22.7679C300.488 22.7679 301.02 22.2335 301.02 21.5743V0.521704Z" fill="white"/>
<path d="M356.961 9.85449H336.01C335.354 9.85449 334.822 10.3889 334.822 11.0481C334.822 11.7073 335.354 12.2416 336.01 12.2416H356.961C357.617 12.2416 358.149 11.7073 358.149 11.0481C358.149 10.3889 357.617 9.85449 356.961 9.85449Z" fill="white"/>
<path d="M347.674 0.521704C347.674 -0.137491 347.143 -0.671875 346.487 -0.671875C345.831 -0.671875 345.299 -0.137491 345.299 0.521704V21.5743C345.299 22.2335 345.831 22.7679 346.487 22.7679C347.143 22.7679 347.674 22.2335 347.674 21.5743V0.521704Z" fill="white"/>
<path d="M403.616 9.85449H382.664C382.008 9.85449 381.477 10.3889 381.477 11.0481C381.477 11.7073 382.008 12.2416 382.664 12.2416H403.616C404.272 12.2416 404.803 11.7073 404.803 11.0481C404.803 10.3889 404.272 9.85449 403.616 9.85449Z" fill="white"/>
<path d="M394.328 0.521704C394.328 -0.137491 393.796 -0.671875 393.14 -0.671875C392.484 -0.671875 391.952 -0.137491 391.952 0.521704V21.5743C391.952 22.2335 392.484 22.7679 393.14 22.7679C393.796 22.7679 394.328 22.2335 394.328 21.5743V0.521704Z" fill="white"/>
<path d="M450.269 9.85449H429.318C428.662 9.85449 428.13 10.3889 428.13 11.0481C428.13 11.7073 428.662 12.2416 429.318 12.2416H450.269C450.925 12.2416 451.457 11.7073 451.457 11.0481C451.457 10.3889 450.925 9.85449 450.269 9.85449Z" fill="white"/>
<path d="M440.981 0.521704C440.981 -0.137491 440.449 -0.671875 439.793 -0.671875C439.137 -0.671875 438.605 -0.137491 438.605 0.521704V21.5743C438.605 22.2335 439.137 22.7679 439.793 22.7679C440.449 22.7679 440.981 22.2335 440.981 21.5743V0.521704Z" fill="white"/>
<path d="M30.3851 56.7339H9.43392C8.7779 56.7339 8.24609 57.2683 8.24609 57.9275C8.24609 58.5867 8.7779 59.121 9.43392 59.121H30.3851C31.0412 59.121 31.573 58.5867 31.573 57.9275C31.573 57.2683 31.0412 56.7339 30.3851 56.7339Z" fill="white"/>
<path d="M21.0983 47.4016C21.0983 46.7424 20.5665 46.208 19.9105 46.208C19.2545 46.208 18.7227 46.7424 18.7227 47.4016V68.4542C18.7227 69.1134 19.2545 69.6478 19.9105 69.6478C20.5665 69.6478 21.0983 69.1134 21.0983 68.4542V47.4016Z" fill="white"/>
<path d="M77.0394 56.7339H56.0882C55.4322 56.7339 54.9004 57.2683 54.9004 57.9275C54.9004 58.5867 55.4322 59.121 56.0882 59.121H77.0394C77.6955 59.121 78.2273 58.5867 78.2273 57.9275C78.2273 57.2683 77.6955 56.7339 77.0394 56.7339Z" fill="white"/>
<path d="M67.7516 47.4016C67.7516 46.7424 67.2198 46.208 66.5638 46.208C65.9078 46.208 65.376 46.7424 65.376 47.4016V68.4542C65.376 69.1134 65.9078 69.6478 66.5638 69.6478C67.2198 69.6478 67.7516 69.1134 67.7516 68.4542V47.4016Z" fill="white"/>
<path d="M123.693 56.7339H102.742C102.086 56.7339 101.554 57.2683 101.554 57.9275C101.554 58.5867 102.086 59.121 102.742 59.121H123.693C124.349 59.121 124.881 58.5867 124.881 57.9275C124.881 57.2683 124.349 56.7339 123.693 56.7339Z" fill="white"/>
<path d="M114.405 47.4016C114.405 46.7424 113.873 46.208 113.217 46.208C112.561 46.208 112.029 46.7424 112.029 47.4016V68.4542C112.029 69.1134 112.561 69.6478 113.217 69.6478C113.873 69.6478 114.405 69.1134 114.405 68.4542V47.4016Z" fill="white"/>
<path d="M170.347 56.7339H149.396C148.74 56.7339 148.208 57.2683 148.208 57.9275C148.208 58.5867 148.74 59.121 149.396 59.121H170.347C171.003 59.121 171.535 58.5867 171.535 57.9275C171.535 57.2683 171.003 56.7339 170.347 56.7339Z" fill="white"/>
<path d="M161.059 47.4016C161.059 46.7424 160.527 46.208 159.871 46.208C159.215 46.208 158.684 46.7424 158.684 47.4016V68.4542C158.684 69.1134 159.215 69.6478 159.871 69.6478C160.527 69.6478 161.059 69.1134 161.059 68.4542V47.4016Z" fill="white"/>
<path d="M217 56.7339H196.049C195.393 56.7339 194.861 57.2683 194.861 57.9275C194.861 58.5867 195.393 59.121 196.049 59.121H217C217.656 59.121 218.188 58.5867 218.188 57.9275C218.188 57.2683 217.656 56.7339 217 56.7339Z" fill="white"/>
<path d="M207.713 47.4016C207.713 46.7424 207.181 46.208 206.525 46.208C205.869 46.208 205.337 46.7424 205.337 47.4016V68.4542C205.337 69.1134 205.869 69.6478 206.525 69.6478C207.181 69.6478 207.713 69.1134 207.713 68.4542V47.4016Z" fill="white"/>
<path d="M263.655 56.7339H242.703C242.047 56.7339 241.516 57.2683 241.516 57.9275C241.516 58.5867 242.047 59.121 242.703 59.121H263.655C264.311 59.121 264.842 58.5867 264.842 57.9275C264.842 57.2683 264.311 56.7339 263.655 56.7339Z" fill="white"/>
<path d="M254.367 47.4016C254.367 46.7424 253.835 46.208 253.179 46.208C252.523 46.208 251.991 46.7424 251.991 47.4016V68.4542C251.991 69.1134 252.523 69.6478 253.179 69.6478C253.835 69.6478 254.367 69.1134 254.367 68.4542V47.4016Z" fill="white"/>
<path d="M310.308 56.7339H289.357C288.701 56.7339 288.169 57.2683 288.169 57.9275C288.169 58.5867 288.701 59.121 289.357 59.121H310.308C310.964 59.121 311.496 58.5867 311.496 57.9275C311.496 57.2683 310.964 56.7339 310.308 56.7339Z" fill="white"/>
<path d="M301.02 47.4016C301.02 46.7424 300.488 46.208 299.832 46.208C299.176 46.208 298.645 46.7424 298.645 47.4016V68.4542C298.645 69.1134 299.176 69.6478 299.832 69.6478C300.488 69.6478 301.02 69.1134 301.02 68.4542V47.4016Z" fill="white"/>
<path d="M356.961 56.7339H336.01C335.354 56.7339 334.822 57.2683 334.822 57.9275C334.822 58.5867 335.354 59.121 336.01 59.121H356.961C357.617 59.121 358.149 58.5867 358.149 57.9275C358.149 57.2683 357.617 56.7339 356.961 56.7339Z" fill="white"/>
<path d="M347.674 47.4016C347.674 46.7424 347.143 46.208 346.487 46.208C345.831 46.208 345.299 46.7424 345.299 47.4016V68.4542C345.299 69.1134 345.831 69.6478 346.487 69.6478C347.143 69.6478 347.674 69.1134 347.674 68.4542V47.4016Z" fill="white"/>
<path d="M403.616 56.7339H382.664C382.008 56.7339 381.477 57.2683 381.477 57.9275C381.477 58.5867 382.008 59.121 382.664 59.121H403.616C404.272 59.121 404.803 58.5867 404.803 57.9275C404.803 57.2683 404.272 56.7339 403.616 56.7339Z" fill="white"/>
<path d="M394.328 47.4016C394.328 46.7424 393.796 46.208 393.14 46.208C392.484 46.208 391.952 46.7424 391.952 47.4016V68.4542C391.952 69.1134 392.484 69.6478 393.14 69.6478C393.796 69.6478 394.328 69.1134 394.328 68.4542V47.4016Z" fill="white"/>
<path d="M450.269 56.7339H429.318C428.662 56.7339 428.13 57.2683 428.13 57.9275C428.13 58.5867 428.662 59.121 429.318 59.121H450.269C450.925 59.121 451.457 58.5867 451.457 57.9275C451.457 57.2683 450.925 56.7339 450.269 56.7339Z" fill="white"/>
<path d="M440.981 47.4016C440.981 46.7424 440.449 46.208 439.793 46.208C439.137 46.208 438.605 46.7424 438.605 47.4016V68.4542C438.605 69.1134 439.137 69.6478 439.793 69.6478C440.449 69.6478 440.981 69.1134 440.981 68.4542V47.4016Z" fill="white"/>
<path d="M30.3851 103.614H9.43392C8.7779 103.614 8.24609 104.148 8.24609 104.807C8.24609 105.467 8.7779 106.001 9.43392 106.001H30.3851C31.0412 106.001 31.573 105.467 31.573 104.807C31.573 104.148 31.0412 103.614 30.3851 103.614Z" fill="white"/>
<path d="M21.0983 94.281C21.0983 93.6218 20.5665 93.0874 19.9105 93.0874C19.2545 93.0874 18.7227 93.6218 18.7227 94.281V115.334C18.7227 115.993 19.2545 116.527 19.9105 116.527C20.5665 116.527 21.0983 115.993 21.0983 115.334V94.281Z" fill="white"/>
<path d="M77.0394 103.614H56.0882C55.4322 103.614 54.9004 104.148 54.9004 104.807C54.9004 105.467 55.4322 106.001 56.0882 106.001H77.0394C77.6955 106.001 78.2273 105.467 78.2273 104.807C78.2273 104.148 77.6955 103.614 77.0394 103.614Z" fill="white"/>
<path d="M67.7516 94.281C67.7516 93.6218 67.2198 93.0874 66.5638 93.0874C65.9078 93.0874 65.376 93.6218 65.376 94.281V115.334C65.376 115.993 65.9078 116.527 66.5638 116.527C67.2198 116.527 67.7516 115.993 67.7516 115.334V94.281Z" fill="white"/>
<path d="M123.693 103.614H102.742C102.086 103.614 101.554 104.148 101.554 104.807C101.554 105.467 102.086 106.001 102.742 106.001H123.693C124.349 106.001 124.881 105.467 124.881 104.807C124.881 104.148 124.349 103.614 123.693 103.614Z" fill="white"/>
<path d="M114.405 94.281C114.405 93.6218 113.873 93.0874 113.217 93.0874C112.561 93.0874 112.029 93.6218 112.029 94.281V115.334C112.029 115.993 112.561 116.527 113.217 116.527C113.873 116.527 114.405 115.993 114.405 115.334V94.281Z" fill="white"/>
<path d="M170.347 103.614H149.396C148.74 103.614 148.208 104.148 148.208 104.807C148.208 105.467 148.74 106.001 149.396 106.001H170.347C171.003 106.001 171.535 105.467 171.535 104.807C171.535 104.148 171.003 103.614 170.347 103.614Z" fill="white"/>
<path d="M161.059 94.281C161.059 93.6218 160.527 93.0874 159.871 93.0874C159.215 93.0874 158.684 93.6218 158.684 94.281V115.334C158.684 115.993 159.215 116.527 159.871 116.527C160.527 116.527 161.059 115.993 161.059 115.334V94.281Z" fill="white"/>
<path d="M217 103.614H196.049C195.393 103.614 194.861 104.148 194.861 104.807C194.861 105.467 195.393 106.001 196.049 106.001H217C217.656 106.001 218.188 105.467 218.188 104.807C218.188 104.148 217.656 103.614 217 103.614Z" fill="white"/>
<path d="M207.713 94.281C207.713 93.6218 207.181 93.0874 206.525 93.0874C205.869 93.0874 205.337 93.6218 205.337 94.281V115.334C205.337 115.993 205.869 116.527 206.525 116.527C207.181 116.527 207.713 115.993 207.713 115.334V94.281Z" fill="white"/>
<path d="M263.655 103.614H242.703C242.047 103.614 241.516 104.148 241.516 104.807C241.516 105.467 242.047 106.001 242.703 106.001H263.655C264.311 106.001 264.842 105.467 264.842 104.807C264.842 104.148 264.311 103.614 263.655 103.614Z" fill="white"/>
<path d="M254.367 94.281C254.367 93.6218 253.835 93.0874 253.179 93.0874C252.523 93.0874 251.991 93.6218 251.991 94.281V115.334C251.991 115.993 252.523 116.527 253.179 116.527C253.835 116.527 254.367 115.993 254.367 115.334V94.281Z" fill="white"/>
<path d="M310.308 103.614H289.357C288.701 103.614 288.169 104.148 288.169 104.807C288.169 105.467 288.701 106.001 289.357 106.001H310.308C310.964 106.001 311.496 105.467 311.496 104.807C311.496 104.148 310.964 103.614 310.308 103.614Z" fill="white"/>
<path d="M301.02 94.281C301.02 93.6218 300.488 93.0874 299.832 93.0874C299.176 93.0874 298.645 93.6218 298.645 94.281V115.334C298.645 115.993 299.176 116.527 299.832 116.527C300.488 116.527 301.02 115.993 301.02 115.334V94.281Z" fill="white"/>
<path d="M356.961 103.614H336.01C335.354 103.614 334.822 104.148 334.822 104.807C334.822 105.467 335.354 106.001 336.01 106.001H356.961C357.617 106.001 358.149 105.467 358.149 104.807C358.149 104.148 357.617 103.614 356.961 103.614Z" fill="white"/>
<path d="M347.674 94.281C347.674 93.6218 347.143 93.0874 346.487 93.0874C345.831 93.0874 345.299 93.6218 345.299 94.281V115.334C345.299 115.993 345.831 116.527 346.487 116.527C347.143 116.527 347.674 115.993 347.674 115.334V94.281Z" fill="white"/>
<path d="M403.616 103.614H382.664C382.008 103.614 381.477 104.148 381.477 104.807C381.477 105.467 382.008 106.001 382.664 106.001H403.616C404.272 106.001 404.803 105.467 404.803 104.807C404.803 104.148 404.272 103.614 403.616 103.614Z" fill="white"/>
<path d="M394.328 94.281C394.328 93.6218 393.796 93.0874 393.14 93.0874C392.484 93.0874 391.952 93.6218 391.952 94.281V115.334C391.952 115.993 392.484 116.527 393.14 116.527C393.796 116.527 394.328 115.993 394.328 115.334V94.281Z" fill="white"/>
<path d="M450.269 103.614H429.318C428.662 103.614 428.13 104.148 428.13 104.807C428.13 105.467 428.662 106.001 429.318 106.001H450.269C450.925 106.001 451.457 105.467 451.457 104.807C451.457 104.148 450.925 103.614 450.269 103.614Z" fill="white"/>
<path d="M440.981 94.281C440.981 93.6218 440.449 93.0874 439.793 93.0874C439.137 93.0874 438.605 93.6218 438.605 94.281V115.334C438.605 115.993 439.137 116.527 439.793 116.527C440.449 116.527 440.981 115.993 440.981 115.334V94.281Z" fill="white"/>
<path d="M30.3851 150.493H9.43392C8.7779 150.493 8.24609 151.028 8.24609 151.687C8.24609 152.346 8.7779 152.88 9.43392 152.88H30.3851C31.0412 152.88 31.573 152.346 31.573 151.687C31.573 151.028 31.0412 150.493 30.3851 150.493Z" fill="white"/>
<path d="M21.0983 141.16C21.0983 140.501 20.5665 139.967 19.9105 139.967C19.2545 139.967 18.7227 140.501 18.7227 141.16V162.213C18.7227 162.872 19.2545 163.407 19.9105 163.407C20.5665 163.407 21.0983 162.872 21.0983 162.213V141.16Z" fill="white"/>
<path d="M77.0394 150.493H56.0882C55.4322 150.493 54.9004 151.028 54.9004 151.687C54.9004 152.346 55.4322 152.88 56.0882 152.88H77.0394C77.6955 152.88 78.2273 152.346 78.2273 151.687C78.2273 151.028 77.6955 150.493 77.0394 150.493Z" fill="white"/>
<path d="M67.7516 141.16C67.7516 140.501 67.2198 139.967 66.5638 139.967C65.9078 139.967 65.376 140.501 65.376 141.16V162.213C65.376 162.872 65.9078 163.407 66.5638 163.407C67.2198 163.407 67.7516 162.872 67.7516 162.213V141.16Z" fill="white"/>
<path d="M123.693 150.493H102.742C102.086 150.493 101.554 151.028 101.554 151.687C101.554 152.346 102.086 152.88 102.742 152.88H123.693C124.349 152.88 124.881 152.346 124.881 151.687C124.881 151.028 124.349 150.493 123.693 150.493Z" fill="white"/>
<path d="M114.405 141.16C114.405 140.501 113.873 139.967 113.217 139.967C112.561 139.967 112.029 140.501 112.029 141.16V162.213C112.029 162.872 112.561 163.407 113.217 163.407C113.873 163.407 114.405 162.872 114.405 162.213V141.16Z" fill="white"/>
<path d="M170.347 150.493H149.396C148.74 150.493 148.208 151.028 148.208 151.687C148.208 152.346 148.74 152.88 149.396 152.88H170.347C171.003 152.88 171.535 152.346 171.535 151.687C171.535 151.028 171.003 150.493 170.347 150.493Z" fill="white"/>
<path d="M161.059 141.16C161.059 140.501 160.527 139.967 159.871 139.967C159.215 139.967 158.684 140.501 158.684 141.16V162.213C158.684 162.872 159.215 163.407 159.871 163.407C160.527 163.407 161.059 162.872 161.059 162.213V141.16Z" fill="white"/>
<path d="M217 150.493H196.049C195.393 150.493 194.861 151.028 194.861 151.687C194.861 152.346 195.393 152.88 196.049 152.88H217C217.656 152.88 218.188 152.346 218.188 151.687C218.188 151.028 217.656 150.493 217 150.493Z" fill="white"/>
<path d="M207.713 141.16C207.713 140.501 207.181 139.967 206.525 139.967C205.869 139.967 205.337 140.501 205.337 141.16V162.213C205.337 162.872 205.869 163.407 206.525 163.407C207.181 163.407 207.713 162.872 207.713 162.213V141.16Z" fill="white"/>
<path d="M263.655 150.493H242.703C242.047 150.493 241.516 151.028 241.516 151.687C241.516 152.346 242.047 152.88 242.703 152.88H263.655C264.311 152.88 264.842 152.346 264.842 151.687C264.842 151.028 264.311 150.493 263.655 150.493Z" fill="white"/>
<path d="M254.367 141.16C254.367 140.501 253.835 139.967 253.179 139.967C252.523 139.967 251.991 140.501 251.991 141.16V162.213C251.991 162.872 252.523 163.407 253.179 163.407C253.835 163.407 254.367 162.872 254.367 162.213V141.16Z" fill="white"/>
<path d="M310.308 150.493H289.357C288.701 150.493 288.169 151.028 288.169 151.687C288.169 152.346 288.701 152.88 289.357 152.88H310.308C310.964 152.88 311.496 152.346 311.496 151.687C311.496 151.028 310.964 150.493 310.308 150.493Z" fill="white"/>
<path d="M301.02 141.16C301.02 140.501 300.488 139.967 299.832 139.967C299.176 139.967 298.645 140.501 298.645 141.16V162.213C298.645 162.872 299.176 163.407 299.832 163.407C300.488 163.407 301.02 162.872 301.02 162.213V141.16Z" fill="white"/>
<path d="M356.961 150.493H336.01C335.354 150.493 334.822 151.028 334.822 151.687C334.822 152.346 335.354 152.88 336.01 152.88H356.961C357.617 152.88 358.149 152.346 358.149 151.687C358.149 151.028 357.617 150.493 356.961 150.493Z" fill="white"/>
<path d="M347.674 141.16C347.674 140.501 347.143 139.967 346.487 139.967C345.831 139.967 345.299 140.501 345.299 141.16V162.213C345.299 162.872 345.831 163.407 346.487 163.407C347.143 163.407 347.674 162.872 347.674 162.213V141.16Z" fill="white"/>
<path d="M403.616 150.493H382.664C382.008 150.493 381.477 151.028 381.477 151.687C381.477 152.346 382.008 152.88 382.664 152.88H403.616C404.272 152.88 404.803 152.346 404.803 151.687C404.803 151.028 404.272 150.493 403.616 150.493Z" fill="white"/>
<path d="M394.328 141.16C394.328 140.501 393.796 139.967 393.14 139.967C392.484 139.967 391.952 140.501 391.952 141.16V162.213C391.952 162.872 392.484 163.407 393.14 163.407C393.796 163.407 394.328 162.872 394.328 162.213V141.16Z" fill="white"/>
<path d="M450.269 150.493H429.318C428.662 150.493 428.13 151.028 428.13 151.687C428.13 152.346 428.662 152.88 429.318 152.88H450.269C450.925 152.88 451.457 152.346 451.457 151.687C451.457 151.028 450.925 150.493 450.269 150.493Z" fill="white"/>
<path d="M440.981 141.16C440.981 140.501 440.449 139.967 439.793 139.967C439.137 139.967 438.605 140.501 438.605 141.16V162.213C438.605 162.872 439.137 163.407 439.793 163.407C440.449 163.407 440.981 162.872 440.981 162.213V141.16Z" fill="white"/>
<path d="M30.3851 197.373H9.43392C8.7779 197.373 8.24609 197.907 8.24609 198.566C8.24609 199.225 8.7779 199.76 9.43392 199.76H30.3851C31.0412 199.76 31.573 199.225 31.573 198.566C31.573 197.907 31.0412 197.373 30.3851 197.373Z" fill="white"/>
<path d="M21.0983 188.04C21.0983 187.381 20.5665 186.846 19.9105 186.846C19.2545 186.846 18.7227 187.381 18.7227 188.04V209.092C18.7227 209.752 19.2545 210.286 19.9105 210.286C20.5665 210.286 21.0983 209.752 21.0983 209.092V188.04Z" fill="white"/>
<path d="M77.0394 197.373H56.0882C55.4322 197.373 54.9004 197.907 54.9004 198.566C54.9004 199.225 55.4322 199.76 56.0882 199.76H77.0394C77.6955 199.76 78.2273 199.225 78.2273 198.566C78.2273 197.907 77.6955 197.373 77.0394 197.373Z" fill="white"/>
<path d="M67.7516 188.04C67.7516 187.381 67.2198 186.846 66.5638 186.846C65.9078 186.846 65.376 187.381 65.376 188.04V209.092C65.376 209.752 65.9078 210.286 66.5638 210.286C67.2198 210.286 67.7516 209.752 67.7516 209.092V188.04Z" fill="white"/>
<path d="M123.693 197.373H102.742C102.086 197.373 101.554 197.907 101.554 198.566C101.554 199.225 102.086 199.76 102.742 199.76H123.693C124.349 199.76 124.881 199.225 124.881 198.566C124.881 197.907 124.349 197.373 123.693 197.373Z" fill="white"/>
<path d="M114.405 188.04C114.405 187.381 113.873 186.846 113.217 186.846C112.561 186.846 112.029 187.381 112.029 188.04V209.092C112.029 209.752 112.561 210.286 113.217 210.286C113.873 210.286 114.405 209.752 114.405 209.092V188.04Z" fill="white"/>
<path d="M170.347 197.373H149.396C148.74 197.373 148.208 197.907 148.208 198.566C148.208 199.225 148.74 199.76 149.396 199.76H170.347C171.003 199.76 171.535 199.225 171.535 198.566C171.535 197.907 171.003 197.373 170.347 197.373Z" fill="white"/>
<path d="M161.059 188.04C161.059 187.381 160.527 186.846 159.871 186.846C159.215 186.846 158.684 187.381 158.684 188.04V209.092C158.684 209.752 159.215 210.286 159.871 210.286C160.527 210.286 161.059 209.752 161.059 209.092V188.04Z" fill="white"/>
<path d="M217 197.373H196.049C195.393 197.373 194.861 197.907 194.861 198.566C194.861 199.225 195.393 199.76 196.049 199.76H217C217.656 199.76 218.188 199.225 218.188 198.566C218.188 197.907 217.656 197.373 217 197.373Z" fill="white"/>
<path d="M207.713 188.04C207.713 187.381 207.181 186.846 206.525 186.846C205.869 186.846 205.337 187.381 205.337 188.04V209.092C205.337 209.752 205.869 210.286 206.525 210.286C207.181 210.286 207.713 209.752 207.713 209.092V188.04Z" fill="white"/>
<path d="M263.655 197.373H242.703C242.047 197.373 241.516 197.907 241.516 198.566C241.516 199.225 242.047 199.76 242.703 199.76H263.655C264.311 199.76 264.842 199.225 264.842 198.566C264.842 197.907 264.311 197.373 263.655 197.373Z" fill="white"/>
<path d="M254.367 188.04C254.367 187.381 253.835 186.846 253.179 186.846C252.523 186.846 251.991 187.381 251.991 188.04V209.092C251.991 209.752 252.523 210.286 253.179 210.286C253.835 210.286 254.367 209.752 254.367 209.092V188.04Z" fill="white"/>
<path d="M310.308 197.373H289.357C288.701 197.373 288.169 197.907 288.169 198.566C288.169 199.225 288.701 199.76 289.357 199.76H310.308C310.964 199.76 311.496 199.225 311.496 198.566C311.496 197.907 310.964 197.373 310.308 197.373Z" fill="white"/>
<path d="M301.02 188.04C301.02 187.381 300.488 186.846 299.832 186.846C299.176 186.846 298.645 187.381 298.645 188.04V209.092C298.645 209.752 299.176 210.286 299.832 210.286C300.488 210.286 301.02 209.752 301.02 209.092V188.04Z" fill="white"/>
<path d="M356.961 197.373H336.01C335.354 197.373 334.822 197.907 334.822 198.566C334.822 199.225 335.354 199.76 336.01 199.76H356.961C357.617 199.76 358.149 199.225 358.149 198.566C358.149 197.907 357.617 197.373 356.961 197.373Z" fill="white"/>
<path d="M347.674 188.04C347.674 187.381 347.143 186.846 346.487 186.846C345.831 186.846 345.299 187.381 345.299 188.04V209.092C345.299 209.752 345.831 210.286 346.487 210.286C347.143 210.286 347.674 209.752 347.674 209.092V188.04Z" fill="white"/>
<path d="M403.616 197.373H382.664C382.008 197.373 381.477 197.907 381.477 198.566C381.477 199.225 382.008 199.76 382.664 199.76H403.616C404.272 199.76 404.803 199.225 404.803 198.566C404.803 197.907 404.272 197.373 403.616 197.373Z" fill="white"/>
<path d="M394.328 188.04C394.328 187.381 393.796 186.846 393.14 186.846C392.484 186.846 391.952 187.381 391.952 188.04V209.092C391.952 209.752 392.484 210.286 393.14 210.286C393.796 210.286 394.328 209.752 394.328 209.092V188.04Z" fill="white"/>
<path d="M450.269 197.373H429.318C428.662 197.373 428.13 197.907 428.13 198.566C428.13 199.225 428.662 199.76 429.318 199.76H450.269C450.925 199.76 451.457 199.225 451.457 198.566C451.457 197.907 450.925 197.373 450.269 197.373Z" fill="white"/>
<path d="M440.981 188.04C440.981 187.381 440.449 186.846 439.793 186.846C439.137 186.846 438.605 187.381 438.605 188.04V209.092C438.605 209.752 439.137 210.286 439.793 210.286C440.449 210.286 440.981 209.752 440.981 209.092V188.04Z" fill="white"/>
<path d="M30.3851 244.252H9.43392C8.7779 244.252 8.24609 244.786 8.24609 245.446C8.24609 246.105 8.7779 246.639 9.43392 246.639H30.3851C31.0412 246.639 31.573 246.105 31.573 245.446C31.573 244.786 31.0412 244.252 30.3851 244.252Z" fill="white"/>
<path d="M21.0983 234.92C21.0983 234.26 20.5665 233.726 19.9105 233.726C19.2545 233.726 18.7227 234.26 18.7227 234.92V255.972C18.7227 256.631 19.2545 257.166 19.9105 257.166C20.5665 257.166 21.0983 256.631 21.0983 255.972V234.92Z" fill="white"/>
<path d="M77.0394 244.252H56.0882C55.4322 244.252 54.9004 244.786 54.9004 245.446C54.9004 246.105 55.4322 246.639 56.0882 246.639H77.0394C77.6955 246.639 78.2273 246.105 78.2273 245.446C78.2273 244.786 77.6955 244.252 77.0394 244.252Z" fill="white"/>
<path d="M67.7516 234.92C67.7516 234.26 67.2198 233.726 66.5638 233.726C65.9078 233.726 65.376 234.26 65.376 234.92V255.972C65.376 256.631 65.9078 257.166 66.5638 257.166C67.2198 257.166 67.7516 256.631 67.7516 255.972V234.92Z" fill="white"/>
<path d="M123.693 244.252H102.742C102.086 244.252 101.554 244.786 101.554 245.446C101.554 246.105 102.086 246.639 102.742 246.639H123.693C124.349 246.639 124.881 246.105 124.881 245.446C124.881 244.786 124.349 244.252 123.693 244.252Z" fill="white"/>
<path d="M114.405 234.92C114.405 234.26 113.873 233.726 113.217 233.726C112.561 233.726 112.029 234.26 112.029 234.92V255.972C112.029 256.631 112.561 257.166 113.217 257.166C113.873 257.166 114.405 256.631 114.405 255.972V234.92Z" fill="white"/>
<path d="M170.347 244.252H149.396C148.74 244.252 148.208 244.786 148.208 245.446C148.208 246.105 148.74 246.639 149.396 246.639H170.347C171.003 246.639 171.535 246.105 171.535 245.446C171.535 244.786 171.003 244.252 170.347 244.252Z" fill="white"/>
<path d="M161.059 234.92C161.059 234.26 160.527 233.726 159.871 233.726C159.215 233.726 158.684 234.26 158.684 234.92V255.972C158.684 256.631 159.215 257.166 159.871 257.166C160.527 257.166 161.059 256.631 161.059 255.972V234.92Z" fill="white"/>
<path d="M217 244.252H196.049C195.393 244.252 194.861 244.786 194.861 245.446C194.861 246.105 195.393 246.639 196.049 246.639H217C217.656 246.639 218.188 246.105 218.188 245.446C218.188 244.786 217.656 244.252 217 244.252Z" fill="white"/>
<path d="M207.713 234.92C207.713 234.26 207.181 233.726 206.525 233.726C205.869 233.726 205.337 234.26 205.337 234.92V255.972C205.337 256.631 205.869 257.166 206.525 257.166C207.181 257.166 207.713 256.631 207.713 255.972V234.92Z" fill="white"/>
<path d="M263.655 244.252H242.703C242.047 244.252 241.516 244.786 241.516 245.446C241.516 246.105 242.047 246.639 242.703 246.639H263.655C264.311 246.639 264.842 246.105 264.842 245.446C264.842 244.786 264.311 244.252 263.655 244.252Z" fill="white"/>
<path d="M254.367 234.92C254.367 234.26 253.835 233.726 253.179 233.726C252.523 233.726 251.991 234.26 251.991 234.92V255.972C251.991 256.631 252.523 257.166 253.179 257.166C253.835 257.166 254.367 256.631 254.367 255.972V234.92Z" fill="white"/>
<path d="M310.308 244.252H289.357C288.701 244.252 288.169 244.786 288.169 245.446C288.169 246.105 288.701 246.639 289.357 246.639H310.308C310.964 246.639 311.496 246.105 311.496 245.446C311.496 244.786 310.964 244.252 310.308 244.252Z" fill="white"/>
<path d="M301.02 234.92C301.02 234.26 300.488 233.726 299.832 233.726C299.176 233.726 298.645 234.26 298.645 234.92V255.972C298.645 256.631 299.176 257.166 299.832 257.166C300.488 257.166 301.02 256.631 301.02 255.972V234.92Z" fill="white"/>
<path d="M356.961 244.252H336.01C335.354 244.252 334.822 244.786 334.822 245.446C334.822 246.105 335.354 246.639 336.01 246.639H356.961C357.617 246.639 358.149 246.105 358.149 245.446C358.149 244.786 357.617 244.252 356.961 244.252Z" fill="white"/>
<path d="M347.674 234.92C347.674 234.26 347.143 233.726 346.487 233.726C345.831 233.726 345.299 234.26 345.299 234.92V255.972C345.299 256.631 345.831 257.166 346.487 257.166C347.143 257.166 347.674 256.631 347.674 255.972V234.92Z" fill="white"/>
<path d="M403.616 244.252H382.664C382.008 244.252 381.477 244.786 381.477 245.446C381.477 246.105 382.008 246.639 382.664 246.639H403.616C404.272 246.639 404.803 246.105 404.803 245.446C404.803 244.786 404.272 244.252 403.616 244.252Z" fill="white"/>
<path d="M394.328 234.92C394.328 234.26 393.796 233.726 393.14 233.726C392.484 233.726 391.952 234.26 391.952 234.92V255.972C391.952 256.631 392.484 257.166 393.14 257.166C393.796 257.166 394.328 256.631 394.328 255.972V234.92Z" fill="white"/>
<path d="M450.269 244.252H429.318C428.662 244.252 428.13 244.786 428.13 245.446C428.13 246.105 428.662 246.639 429.318 246.639H450.269C450.925 246.639 451.457 246.105 451.457 245.446C451.457 244.786 450.925 244.252 450.269 244.252Z" fill="white"/>
<path d="M440.981 234.92C440.981 234.26 440.449 233.726 439.793 233.726C439.137 233.726 438.605 234.26 438.605 234.92V255.972C438.605 256.631 439.137 257.166 439.793 257.166C440.449 257.166 440.981 256.631 440.981 255.972V234.92Z" fill="white"/>
<path d="M30.3851 291.132H9.43392C8.7779 291.132 8.24609 291.666 8.24609 292.325C8.24609 292.985 8.7779 293.519 9.43392 293.519H30.3851C31.0412 293.519 31.573 292.985 31.573 292.325C31.573 291.666 31.0412 291.132 30.3851 291.132Z" fill="white"/>
<path d="M21.0983 281.799C21.0983 281.14 20.5665 280.605 19.9105 280.605C19.2545 280.605 18.7227 281.14 18.7227 281.799V302.852C18.7227 303.511 19.2545 304.045 19.9105 304.045C20.5665 304.045 21.0983 303.511 21.0983 302.852V281.799Z" fill="white"/>
<path d="M77.0394 291.132H56.0882C55.4322 291.132 54.9004 291.666 54.9004 292.325C54.9004 292.985 55.4322 293.519 56.0882 293.519H77.0394C77.6955 293.519 78.2273 292.985 78.2273 292.325C78.2273 291.666 77.6955 291.132 77.0394 291.132Z" fill="white"/>
<path d="M67.7516 281.799C67.7516 281.14 67.2198 280.605 66.5638 280.605C65.9078 280.605 65.376 281.14 65.376 281.799V302.852C65.376 303.511 65.9078 304.045 66.5638 304.045C67.2198 304.045 67.7516 303.511 67.7516 302.852V281.799Z" fill="white"/>
<path d="M123.693 291.132H102.742C102.086 291.132 101.554 291.666 101.554 292.325C101.554 292.985 102.086 293.519 102.742 293.519H123.693C124.349 293.519 124.881 292.985 124.881 292.325C124.881 291.666 124.349 291.132 123.693 291.132Z" fill="white"/>
<path d="M114.405 281.799C114.405 281.14 113.873 280.605 113.217 280.605C112.561 280.605 112.029 281.14 112.029 281.799V302.852C112.029 303.511 112.561 304.045 113.217 304.045C113.873 304.045 114.405 303.511 114.405 302.852V281.799Z" fill="white"/>
<path d="M170.347 291.132H149.396C148.74 291.132 148.208 291.666 148.208 292.325C148.208 292.985 148.74 293.519 149.396 293.519H170.347C171.003 293.519 171.535 292.985 171.535 292.325C171.535 291.666 171.003 291.132 170.347 291.132Z" fill="white"/>
<path d="M161.059 281.799C161.059 281.14 160.527 280.605 159.871 280.605C159.215 280.605 158.684 281.14 158.684 281.799V302.852C158.684 303.511 159.215 304.045 159.871 304.045C160.527 304.045 161.059 303.511 161.059 302.852V281.799Z" fill="white"/>
<path d="M217 291.132H196.049C195.393 291.132 194.861 291.666 194.861 292.325C194.861 292.985 195.393 293.519 196.049 293.519H217C217.656 293.519 218.188 292.985 218.188 292.325C218.188 291.666 217.656 291.132 217 291.132Z" fill="white"/>
<path d="M207.713 281.799C207.713 281.14 207.181 280.605 206.525 280.605C205.869 280.605 205.337 281.14 205.337 281.799V302.852C205.337 303.511 205.869 304.045 206.525 304.045C207.181 304.045 207.713 303.511 207.713 302.852V281.799Z" fill="white"/>
<path d="M263.655 291.132H242.703C242.047 291.132 241.516 291.666 241.516 292.325C241.516 292.985 242.047 293.519 242.703 293.519H263.655C264.311 293.519 264.842 292.985 264.842 292.325C264.842 291.666 264.311 291.132 263.655 291.132Z" fill="white"/>
<path d="M254.367 281.799C254.367 281.14 253.835 280.605 253.179 280.605C252.523 280.605 251.991 281.14 251.991 281.799V302.852C251.991 303.511 252.523 304.045 253.179 304.045C253.835 304.045 254.367 303.511 254.367 302.852V281.799Z" fill="white"/>
<path d="M310.308 291.132H289.357C288.701 291.132 288.169 291.666 288.169 292.325C288.169 292.985 288.701 293.519 289.357 293.519H310.308C310.964 293.519 311.496 292.985 311.496 292.325C311.496 291.666 310.964 291.132 310.308 291.132Z" fill="white"/>
<path d="M301.02 281.799C301.02 281.14 300.488 280.605 299.832 280.605C299.176 280.605 298.645 281.14 298.645 281.799V302.852C298.645 303.511 299.176 304.045 299.832 304.045C300.488 304.045 301.02 303.511 301.02 302.852V281.799Z" fill="white"/>
<path d="M356.961 291.132H336.01C335.354 291.132 334.822 291.666 334.822 292.325C334.822 292.985 335.354 293.519 336.01 293.519H356.961C357.617 293.519 358.149 292.985 358.149 292.325C358.149 291.666 357.617 291.132 356.961 291.132Z" fill="white"/>
<path d="M347.674 281.799C347.674 281.14 347.143 280.605 346.487 280.605C345.831 280.605 345.299 281.14 345.299 281.799V302.852C345.299 303.511 345.831 304.045 346.487 304.045C347.143 304.045 347.674 303.511 347.674 302.852V281.799Z" fill="white"/>
<path d="M403.616 291.132H382.664C382.008 291.132 381.477 291.666 381.477 292.325C381.477 292.985 382.008 293.519 382.664 293.519H403.616C404.272 293.519 404.803 292.985 404.803 292.325C404.803 291.666 404.272 291.132 403.616 291.132Z" fill="white"/>
<path d="M394.328 281.799C394.328 281.14 393.796 280.605 393.14 280.605C392.484 280.605 391.952 281.14 391.952 281.799V302.852C391.952 303.511 392.484 304.045 393.14 304.045C393.796 304.045 394.328 303.511 394.328 302.852V281.799Z" fill="white"/>
<path d="M450.269 291.132H429.318C428.662 291.132 428.13 291.666 428.13 292.325C428.13 292.985 428.662 293.519 429.318 293.519H450.269C450.925 293.519 451.457 292.985 451.457 292.325C451.457 291.666 450.925 291.132 450.269 291.132Z" fill="white"/>
<path d="M440.981 281.799C440.981 281.14 440.449 280.605 439.793 280.605C439.137 280.605 438.605 281.14 438.605 281.799V302.852C438.605 303.511 439.137 304.045 439.793 304.045C440.449 304.045 440.981 303.511 440.981 302.852V281.799Z" fill="white"/>
<path d="M30.3851 338.011H9.43392C8.7779 338.011 8.24609 338.546 8.24609 339.205C8.24609 339.864 8.7779 340.398 9.43392 340.398H30.3851C31.0412 340.398 31.573 339.864 31.573 339.205C31.573 338.546 31.0412 338.011 30.3851 338.011Z" fill="white"/>
<path d="M21.0983 328.678C21.0983 328.019 20.5665 327.485 19.9105 327.485C19.2545 327.485 18.7227 328.019 18.7227 328.678V349.731C18.7227 350.39 19.2545 350.925 19.9105 350.925C20.5665 350.925 21.0983 350.39 21.0983 349.731V328.678Z" fill="white"/>
<path d="M77.0394 338.011H56.0882C55.4322 338.011 54.9004 338.546 54.9004 339.205C54.9004 339.864 55.4322 340.398 56.0882 340.398H77.0394C77.6955 340.398 78.2273 339.864 78.2273 339.205C78.2273 338.546 77.6955 338.011 77.0394 338.011Z" fill="white"/>
<path d="M67.7516 328.678C67.7516 328.019 67.2198 327.485 66.5638 327.485C65.9078 327.485 65.376 328.019 65.376 328.678V349.731C65.376 350.39 65.9078 350.925 66.5638 350.925C67.2198 350.925 67.7516 350.39 67.7516 349.731V328.678Z" fill="white"/>
<path d="M123.693 338.011H102.742C102.086 338.011 101.554 338.546 101.554 339.205C101.554 339.864 102.086 340.398 102.742 340.398H123.693C124.349 340.398 124.881 339.864 124.881 339.205C124.881 338.546 124.349 338.011 123.693 338.011Z" fill="white"/>
<path d="M114.405 328.678C114.405 328.019 113.873 327.485 113.217 327.485C112.561 327.485 112.029 328.019 112.029 328.678V349.731C112.029 350.39 112.561 350.925 113.217 350.925C113.873 350.925 114.405 350.39 114.405 349.731V328.678Z" fill="white"/>
<path d="M170.347 338.011H149.396C148.74 338.011 148.208 338.546 148.208 339.205C148.208 339.864 148.74 340.398 149.396 340.398H170.347C171.003 340.398 171.535 339.864 171.535 339.205C171.535 338.546 171.003 338.011 170.347 338.011Z" fill="white"/>
<path d="M161.059 328.678C161.059 328.019 160.527 327.485 159.871 327.485C159.215 327.485 158.684 328.019 158.684 328.678V349.731C158.684 350.39 159.215 350.925 159.871 350.925C160.527 350.925 161.059 350.39 161.059 349.731V328.678Z" fill="white"/>
<path d="M217 338.011H196.049C195.393 338.011 194.861 338.546 194.861 339.205C194.861 339.864 195.393 340.398 196.049 340.398H217C217.656 340.398 218.188 339.864 218.188 339.205C218.188 338.546 217.656 338.011 217 338.011Z" fill="white"/>
<path d="M207.713 328.678C207.713 328.019 207.181 327.485 206.525 327.485C205.869 327.485 205.337 328.019 205.337 328.678V349.731C205.337 350.39 205.869 350.925 206.525 350.925C207.181 350.925 207.713 350.39 207.713 349.731V328.678Z" fill="white"/>
<path d="M263.655 338.011H242.703C242.047 338.011 241.516 338.546 241.516 339.205C241.516 339.864 242.047 340.398 242.703 340.398H263.655C264.311 340.398 264.842 339.864 264.842 339.205C264.842 338.546 264.311 338.011 263.655 338.011Z" fill="white"/>
<path d="M254.367 328.678C254.367 328.019 253.835 327.485 253.179 327.485C252.523 327.485 251.991 328.019 251.991 328.678V349.731C251.991 350.39 252.523 350.925 253.179 350.925C253.835 350.925 254.367 350.39 254.367 349.731V328.678Z" fill="white"/>
<path d="M310.308 338.011H289.357C288.701 338.011 288.169 338.546 288.169 339.205C288.169 339.864 288.701 340.398 289.357 340.398H310.308C310.964 340.398 311.496 339.864 311.496 339.205C311.496 338.546 310.964 338.011 310.308 338.011Z" fill="white"/>
<path d="M301.02 328.678C301.02 328.019 300.488 327.485 299.832 327.485C299.176 327.485 298.645 328.019 298.645 328.678V349.731C298.645 350.39 299.176 350.925 299.832 350.925C300.488 350.925 301.02 350.39 301.02 349.731V328.678Z" fill="white"/>
<path d="M356.961 338.011H336.01C335.354 338.011 334.822 338.546 334.822 339.205C334.822 339.864 335.354 340.398 336.01 340.398H356.961C357.617 340.398 358.149 339.864 358.149 339.205C358.149 338.546 357.617 338.011 356.961 338.011Z" fill="white"/>
<path d="M347.674 328.678C347.674 328.019 347.143 327.485 346.487 327.485C345.831 327.485 345.299 328.019 345.299 328.678V349.731C345.299 350.39 345.831 350.925 346.487 350.925C347.143 350.925 347.674 350.39 347.674 349.731V328.678Z" fill="white"/>
<path d="M403.616 338.011H382.664C382.008 338.011 381.477 338.546 381.477 339.205C381.477 339.864 382.008 340.398 382.664 340.398H403.616C404.272 340.398 404.803 339.864 404.803 339.205C404.803 338.546 404.272 338.011 403.616 338.011Z" fill="white"/>
<path d="M394.328 328.678C394.328 328.019 393.796 327.485 393.14 327.485C392.484 327.485 391.952 328.019 391.952 328.678V349.731C391.952 350.39 392.484 350.925 393.14 350.925C393.796 350.925 394.328 350.39 394.328 349.731V328.678Z" fill="white"/>
<path d="M450.269 338.011H429.318C428.662 338.011 428.13 338.546 428.13 339.205C428.13 339.864 428.662 340.398 429.318 340.398H450.269C450.925 340.398 451.457 339.864 451.457 339.205C451.457 338.546 450.925 338.011 450.269 338.011Z" fill="white"/>
<path d="M440.981 328.678C440.981 328.019 440.449 327.485 439.793 327.485C439.137 327.485 438.605 328.019 438.605 328.678V349.731C438.605 350.39 439.137 350.925 439.793 350.925C440.449 350.925 440.981 350.39 440.981 349.731V328.678Z" fill="white"/>
<path d="M30.3851 384.891H9.43392C8.7779 384.891 8.24609 385.425 8.24609 386.084C8.24609 386.743 8.7779 387.278 9.43392 387.278H30.3851C31.0412 387.278 31.573 386.743 31.573 386.084C31.573 385.425 31.0412 384.891 30.3851 384.891Z" fill="white"/>
<path d="M21.0983 375.558C21.0983 374.899 20.5665 374.364 19.9105 374.364C19.2545 374.364 18.7227 374.899 18.7227 375.558V396.61C18.7227 397.27 19.2545 397.804 19.9105 397.804C20.5665 397.804 21.0983 397.27 21.0983 396.61V375.558Z" fill="white"/>
<path d="M77.0394 384.891H56.0882C55.4322 384.891 54.9004 385.425 54.9004 386.084C54.9004 386.743 55.4322 387.278 56.0882 387.278H77.0394C77.6955 387.278 78.2273 386.743 78.2273 386.084C78.2273 385.425 77.6955 384.891 77.0394 384.891Z" fill="white"/>
<path d="M67.7516 375.558C67.7516 374.899 67.2198 374.364 66.5638 374.364C65.9078 374.364 65.376 374.899 65.376 375.558V396.61C65.376 397.27 65.9078 397.804 66.5638 397.804C67.2198 397.804 67.7516 397.27 67.7516 396.61V375.558Z" fill="white"/>
<path d="M123.693 384.891H102.742C102.086 384.891 101.554 385.425 101.554 386.084C101.554 386.743 102.086 387.278 102.742 387.278H123.693C124.349 387.278 124.881 386.743 124.881 386.084C124.881 385.425 124.349 384.891 123.693 384.891Z" fill="white"/>
<path d="M114.405 375.558C114.405 374.899 113.873 374.364 113.217 374.364C112.561 374.364 112.029 374.899 112.029 375.558V396.61C112.029 397.27 112.561 397.804 113.217 397.804C113.873 397.804 114.405 397.27 114.405 396.61V375.558Z" fill="white"/>
<path d="M170.347 384.891H149.396C148.74 384.891 148.208 385.425 148.208 386.084C148.208 386.743 148.74 387.278 149.396 387.278H170.347C171.003 387.278 171.535 386.743 171.535 386.084C171.535 385.425 171.003 384.891 170.347 384.891Z" fill="white"/>
<path d="M161.059 375.558C161.059 374.899 160.527 374.364 159.871 374.364C159.215 374.364 158.684 374.899 158.684 375.558V396.61C158.684 397.27 159.215 397.804 159.871 397.804C160.527 397.804 161.059 397.27 161.059 396.61V375.558Z" fill="white"/>
<path d="M217 384.891H196.049C195.393 384.891 194.861 385.425 194.861 386.084C194.861 386.743 195.393 387.278 196.049 387.278H217C217.656 387.278 218.188 386.743 218.188 386.084C218.188 385.425 217.656 384.891 217 384.891Z" fill="white"/>
<path d="M207.713 375.558C207.713 374.899 207.181 374.364 206.525 374.364C205.869 374.364 205.337 374.899 205.337 375.558V396.61C205.337 397.27 205.869 397.804 206.525 397.804C207.181 397.804 207.713 397.27 207.713 396.61V375.558Z" fill="white"/>
<path d="M263.655 384.891H242.703C242.047 384.891 241.516 385.425 241.516 386.084C241.516 386.743 242.047 387.278 242.703 387.278H263.655C264.311 387.278 264.842 386.743 264.842 386.084C264.842 385.425 264.311 384.891 263.655 384.891Z" fill="white"/>
<path d="M254.367 375.558C254.367 374.899 253.835 374.364 253.179 374.364C252.523 374.364 251.991 374.899 251.991 375.558V396.61C251.991 397.27 252.523 397.804 253.179 397.804C253.835 397.804 254.367 397.27 254.367 396.61V375.558Z" fill="white"/>
<path d="M310.308 384.891H289.357C288.701 384.891 288.169 385.425 288.169 386.084C288.169 386.743 288.701 387.278 289.357 387.278H310.308C310.964 387.278 311.496 386.743 311.496 386.084C311.496 385.425 310.964 384.891 310.308 384.891Z" fill="white"/>
<path d="M301.02 375.558C301.02 374.899 300.488 374.364 299.832 374.364C299.176 374.364 298.645 374.899 298.645 375.558V396.61C298.645 397.27 299.176 397.804 299.832 397.804C300.488 397.804 301.02 397.27 301.02 396.61V375.558Z" fill="white"/>
<path d="M356.961 384.891H336.01C335.354 384.891 334.822 385.425 334.822 386.084C334.822 386.743 335.354 387.278 336.01 387.278H356.961C357.617 387.278 358.149 386.743 358.149 386.084C358.149 385.425 357.617 384.891 356.961 384.891Z" fill="white"/>
<path d="M347.674 375.558C347.674 374.899 347.143 374.364 346.487 374.364C345.831 374.364 345.299 374.899 345.299 375.558V396.61C345.299 397.27 345.831 397.804 346.487 397.804C347.143 397.804 347.674 397.27 347.674 396.61V375.558Z" fill="white"/>
<path d="M403.616 384.891H382.664C382.008 384.891 381.477 385.425 381.477 386.084C381.477 386.743 382.008 387.278 382.664 387.278H403.616C404.272 387.278 404.803 386.743 404.803 386.084C404.803 385.425 404.272 384.891 403.616 384.891Z" fill="white"/>
<path d="M394.328 375.558C394.328 374.899 393.796 374.364 393.14 374.364C392.484 374.364 391.952 374.899 391.952 375.558V396.61C391.952 397.27 392.484 397.804 393.14 397.804C393.796 397.804 394.328 397.27 394.328 396.61V375.558Z" fill="white"/>
<path d="M450.269 384.891H429.318C428.662 384.891 428.13 385.425 428.13 386.084C428.13 386.743 428.662 387.278 429.318 387.278H450.269C450.925 387.278 451.457 386.743 451.457 386.084C451.457 385.425 450.925 384.891 450.269 384.891Z" fill="white"/>
<path d="M440.981 375.558C440.981 374.899 440.449 374.364 439.793 374.364C439.137 374.364 438.605 374.899 438.605 375.558V396.61C438.605 397.27 439.137 397.804 439.793 397.804C440.449 397.804 440.981 397.27 440.981 396.61V375.558Z" fill="white"/>
<path d="M30.3851 431.771H9.43392C8.7779 431.771 8.24609 432.305 8.24609 432.964C8.24609 433.623 8.7779 434.158 9.43392 434.158H30.3851C31.0412 434.158 31.573 433.623 31.573 432.964C31.573 432.305 31.0412 431.771 30.3851 431.771Z" fill="white"/>
<path d="M21.0983 422.438C21.0983 421.779 20.5665 421.244 19.9105 421.244C19.2545 421.244 18.7227 421.779 18.7227 422.438V443.49C18.7227 444.15 19.2545 444.684 19.9105 444.684C20.5665 444.684 21.0983 444.15 21.0983 443.49V422.438Z" fill="white"/>
<path d="M77.0394 431.771H56.0882C55.4322 431.771 54.9004 432.305 54.9004 432.964C54.9004 433.623 55.4322 434.158 56.0882 434.158H77.0394C77.6955 434.158 78.2273 433.623 78.2273 432.964C78.2273 432.305 77.6955 431.771 77.0394 431.771Z" fill="white"/>
<path d="M67.7516 422.438C67.7516 421.779 67.2198 421.244 66.5638 421.244C65.9078 421.244 65.376 421.779 65.376 422.438V443.49C65.376 444.15 65.9078 444.684 66.5638 444.684C67.2198 444.684 67.7516 444.15 67.7516 443.49V422.438Z" fill="white"/>
<path d="M123.693 431.771H102.742C102.086 431.771 101.554 432.305 101.554 432.964C101.554 433.623 102.086 434.158 102.742 434.158H123.693C124.349 434.158 124.881 433.623 124.881 432.964C124.881 432.305 124.349 431.771 123.693 431.771Z" fill="white"/>
<path d="M114.405 422.438C114.405 421.779 113.873 421.244 113.217 421.244C112.561 421.244 112.029 421.779 112.029 422.438V443.49C112.029 444.15 112.561 444.684 113.217 444.684C113.873 444.684 114.405 444.15 114.405 443.49V422.438Z" fill="white"/>
<path d="M170.347 431.771H149.396C148.74 431.771 148.208 432.305 148.208 432.964C148.208 433.623 148.74 434.158 149.396 434.158H170.347C171.003 434.158 171.535 433.623 171.535 432.964C171.535 432.305 171.003 431.771 170.347 431.771Z" fill="white"/>
<path d="M161.059 422.438C161.059 421.779 160.527 421.244 159.871 421.244C159.215 421.244 158.684 421.779 158.684 422.438V443.49C158.684 444.15 159.215 444.684 159.871 444.684C160.527 444.684 161.059 444.15 161.059 443.49V422.438Z" fill="white"/>
<path d="M217 431.771H196.049C195.393 431.771 194.861 432.305 194.861 432.964C194.861 433.623 195.393 434.158 196.049 434.158H217C217.656 434.158 218.188 433.623 218.188 432.964C218.188 432.305 217.656 431.771 217 431.771Z" fill="white"/>
<path d="M207.713 422.438C207.713 421.779 207.181 421.244 206.525 421.244C205.869 421.244 205.337 421.779 205.337 422.438V443.49C205.337 444.15 205.869 444.684 206.525 444.684C207.181 444.684 207.713 444.15 207.713 443.49V422.438Z" fill="white"/>
<path d="M263.655 431.771H242.703C242.047 431.771 241.516 432.305 241.516 432.964C241.516 433.623 242.047 434.158 242.703 434.158H263.655C264.311 434.158 264.842 433.623 264.842 432.964C264.842 432.305 264.311 431.771 263.655 431.771Z" fill="white"/>
<path d="M254.367 422.438C254.367 421.779 253.835 421.244 253.179 421.244C252.523 421.244 251.991 421.779 251.991 422.438V443.49C251.991 444.15 252.523 444.684 253.179 444.684C253.835 444.684 254.367 444.15 254.367 443.49V422.438Z" fill="white"/>
<path d="M310.308 431.771H289.357C288.701 431.771 288.169 432.305 288.169 432.964C288.169 433.623 288.701 434.158 289.357 434.158H310.308C310.964 434.158 311.496 433.623 311.496 432.964C311.496 432.305 310.964 431.771 310.308 431.771Z" fill="white"/>
<path d="M301.02 422.438C301.02 421.779 300.488 421.244 299.832 421.244C299.176 421.244 298.645 421.779 298.645 422.438V443.49C298.645 444.15 299.176 444.684 299.832 444.684C300.488 444.684 301.02 444.15 301.02 443.49V422.438Z" fill="white"/>
<path d="M356.961 431.771H336.01C335.354 431.771 334.822 432.305 334.822 432.964C334.822 433.623 335.354 434.158 336.01 434.158H356.961C357.617 434.158 358.149 433.623 358.149 432.964C358.149 432.305 357.617 431.771 356.961 431.771Z" fill="white"/>
<path d="M347.674 422.438C347.674 421.779 347.143 421.244 346.487 421.244C345.831 421.244 345.299 421.779 345.299 422.438V443.49C345.299 444.15 345.831 444.684 346.487 444.684C347.143 444.684 347.674 444.15 347.674 443.49V422.438Z" fill="white"/>
<path d="M403.616 431.771H382.664C382.008 431.771 381.477 432.305 381.477 432.964C381.477 433.623 382.008 434.158 382.664 434.158H403.616C404.272 434.158 404.803 433.623 404.803 432.964C404.803 432.305 404.272 431.771 403.616 431.771Z" fill="white"/>
<path d="M394.328 422.438C394.328 421.779 393.796 421.244 393.14 421.244C392.484 421.244 391.952 421.779 391.952 422.438V443.49C391.952 444.15 392.484 444.684 393.14 444.684C393.796 444.684 394.328 444.15 394.328 443.49V422.438Z" fill="white"/>
<path d="M450.269 431.771H429.318C428.662 431.771 428.13 432.305 428.13 432.964C428.13 433.623 428.662 434.158 429.318 434.158H450.269C450.925 434.158 451.457 433.623 451.457 432.964C451.457 432.305 450.925 431.771 450.269 431.771Z" fill="white"/>
<path d="M440.981 422.438C440.981 421.779 440.449 421.244 439.793 421.244C439.137 421.244 438.605 421.779 438.605 422.438V443.49C438.605 444.15 439.137 444.684 439.793 444.684C440.449 444.684 440.981 444.15 440.981 443.49V422.438Z" fill="white"/>
<path d="M30.3851 478.65H9.43392C8.7779 478.65 8.24609 479.184 8.24609 479.843C8.24609 480.503 8.7779 481.037 9.43392 481.037H30.3851C31.0412 481.037 31.573 480.503 31.573 479.843C31.573 479.184 31.0412 478.65 30.3851 478.65Z" fill="white"/>
<path d="M21.0983 469.317C21.0983 468.658 20.5665 468.124 19.9105 468.124C19.2545 468.124 18.7227 468.658 18.7227 469.317V490.37C18.7227 491.029 19.2545 491.563 19.9105 491.563C20.5665 491.563 21.0983 491.029 21.0983 490.37V469.317Z" fill="white"/>
<path d="M77.0394 478.65H56.0882C55.4322 478.65 54.9004 479.184 54.9004 479.843C54.9004 480.503 55.4322 481.037 56.0882 481.037H77.0394C77.6955 481.037 78.2273 480.503 78.2273 479.843C78.2273 479.184 77.6955 478.65 77.0394 478.65Z" fill="white"/>
<path d="M67.7516 469.317C67.7516 468.658 67.2198 468.124 66.5638 468.124C65.9078 468.124 65.376 468.658 65.376 469.317V490.37C65.376 491.029 65.9078 491.563 66.5638 491.563C67.2198 491.563 67.7516 491.029 67.7516 490.37V469.317Z" fill="white"/>
<path d="M123.693 478.65H102.742C102.086 478.65 101.554 479.184 101.554 479.843C101.554 480.503 102.086 481.037 102.742 481.037H123.693C124.349 481.037 124.881 480.503 124.881 479.843C124.881 479.184 124.349 478.65 123.693 478.65Z" fill="white"/>
<path d="M114.405 469.317C114.405 468.658 113.873 468.124 113.217 468.124C112.561 468.124 112.029 468.658 112.029 469.317V490.37C112.029 491.029 112.561 491.563 113.217 491.563C113.873 491.563 114.405 491.029 114.405 490.37V469.317Z" fill="white"/>
<path d="M170.347 478.65H149.396C148.74 478.65 148.208 479.184 148.208 479.843C148.208 480.503 148.74 481.037 149.396 481.037H170.347C171.003 481.037 171.535 480.503 171.535 479.843C171.535 479.184 171.003 478.65 170.347 478.65Z" fill="white"/>
<path d="M161.059 469.317C161.059 468.658 160.527 468.124 159.871 468.124C159.215 468.124 158.684 468.658 158.684 469.317V490.37C158.684 491.029 159.215 491.563 159.871 491.563C160.527 491.563 161.059 491.029 161.059 490.37V469.317Z" fill="white"/>
<path d="M217 478.65H196.049C195.393 478.65 194.861 479.184 194.861 479.843C194.861 480.503 195.393 481.037 196.049 481.037H217C217.656 481.037 218.188 480.503 218.188 479.843C218.188 479.184 217.656 478.65 217 478.65Z" fill="white"/>
<path d="M207.713 469.317C207.713 468.658 207.181 468.124 206.525 468.124C205.869 468.124 205.337 468.658 205.337 469.317V490.37C205.337 491.029 205.869 491.563 206.525 491.563C207.181 491.563 207.713 491.029 207.713 490.37V469.317Z" fill="white"/>
<path d="M263.655 478.65H242.703C242.047 478.65 241.516 479.184 241.516 479.843C241.516 480.503 242.047 481.037 242.703 481.037H263.655C264.311 481.037 264.842 480.503 264.842 479.843C264.842 479.184 264.311 478.65 263.655 478.65Z" fill="white"/>
<path d="M254.367 469.317C254.367 468.658 253.835 468.124 253.179 468.124C252.523 468.124 251.991 468.658 251.991 469.317V490.37C251.991 491.029 252.523 491.563 253.179 491.563C253.835 491.563 254.367 491.029 254.367 490.37V469.317Z" fill="white"/>
<path d="M310.308 478.65H289.357C288.701 478.65 288.169 479.184 288.169 479.843C288.169 480.503 288.701 481.037 289.357 481.037H310.308C310.964 481.037 311.496 480.503 311.496 479.843C311.496 479.184 310.964 478.65 310.308 478.65Z" fill="white"/>
<path d="M301.02 469.317C301.02 468.658 300.488 468.124 299.832 468.124C299.176 468.124 298.645 468.658 298.645 469.317V490.37C298.645 491.029 299.176 491.563 299.832 491.563C300.488 491.563 301.02 491.029 301.02 490.37V469.317Z" fill="white"/>
<path d="M356.961 478.65H336.01C335.354 478.65 334.822 479.184 334.822 479.843C334.822 480.503 335.354 481.037 336.01 481.037H356.961C357.617 481.037 358.149 480.503 358.149 479.843C358.149 479.184 357.617 478.65 356.961 478.65Z" fill="white"/>
<path d="M347.674 469.317C347.674 468.658 347.143 468.124 346.487 468.124C345.831 468.124 345.299 468.658 345.299 469.317V490.37C345.299 491.029 345.831 491.563 346.487 491.563C347.143 491.563 347.674 491.029 347.674 490.37V469.317Z" fill="white"/>
<path d="M403.616 478.65H382.664C382.008 478.65 381.477 479.184 381.477 479.843C381.477 480.503 382.008 481.037 382.664 481.037H403.616C404.272 481.037 404.803 480.503 404.803 479.843C404.803 479.184 404.272 478.65 403.616 478.65Z" fill="white"/>
<path d="M394.328 469.317C394.328 468.658 393.796 468.124 393.14 468.124C392.484 468.124 391.952 468.658 391.952 469.317V490.37C391.952 491.029 392.484 491.563 393.14 491.563C393.796 491.563 394.328 491.029 394.328 490.37V469.317Z" fill="white"/>
<path d="M450.269 478.65H429.318C428.662 478.65 428.13 479.184 428.13 479.843C428.13 480.503 428.662 481.037 429.318 481.037H450.269C450.925 481.037 451.457 480.503 451.457 479.843C451.457 479.184 450.925 478.65 450.269 478.65Z" fill="white"/>
<path d="M440.981 469.317C440.981 468.658 440.449 468.124 439.793 468.124C439.137 468.124 438.605 468.658 438.605 469.317V490.37C438.605 491.029 439.137 491.563 439.793 491.563C440.449 491.563 440.981 491.029 440.981 490.37V469.317Z" fill="white"/>
<path d="M30.3851 525.529H9.43392C8.7779 525.529 8.24609 526.064 8.24609 526.723C8.24609 527.382 8.7779 527.916 9.43392 527.916H30.3851C31.0412 527.916 31.573 527.382 31.573 526.723C31.573 526.064 31.0412 525.529 30.3851 525.529Z" fill="white"/>
<path d="M21.0983 516.197C21.0983 515.537 20.5665 515.003 19.9105 515.003C19.2545 515.003 18.7227 515.537 18.7227 516.197V537.249C18.7227 537.908 19.2545 538.443 19.9105 538.443C20.5665 538.443 21.0983 537.908 21.0983 537.249V516.197Z" fill="white"/>
<path d="M77.0394 525.529H56.0882C55.4322 525.529 54.9004 526.064 54.9004 526.723C54.9004 527.382 55.4322 527.916 56.0882 527.916H77.0394C77.6955 527.916 78.2273 527.382 78.2273 526.723C78.2273 526.064 77.6955 525.529 77.0394 525.529Z" fill="white"/>
<path d="M67.7516 516.197C67.7516 515.537 67.2198 515.003 66.5638 515.003C65.9078 515.003 65.376 515.537 65.376 516.197V537.249C65.376 537.908 65.9078 538.443 66.5638 538.443C67.2198 538.443 67.7516 537.908 67.7516 537.249V516.197Z" fill="white"/>
<path d="M123.693 525.529H102.742C102.086 525.529 101.554 526.064 101.554 526.723C101.554 527.382 102.086 527.916 102.742 527.916H123.693C124.349 527.916 124.881 527.382 124.881 526.723C124.881 526.064 124.349 525.529 123.693 525.529Z" fill="white"/>
<path d="M114.405 516.197C114.405 515.537 113.873 515.003 113.217 515.003C112.561 515.003 112.029 515.537 112.029 516.197V537.249C112.029 537.908 112.561 538.443 113.217 538.443C113.873 538.443 114.405 537.908 114.405 537.249V516.197Z" fill="white"/>
<path d="M170.347 525.529H149.396C148.74 525.529 148.208 526.064 148.208 526.723C148.208 527.382 148.74 527.916 149.396 527.916H170.347C171.003 527.916 171.535 527.382 171.535 526.723C171.535 526.064 171.003 525.529 170.347 525.529Z" fill="white"/>
<path d="M161.059 516.197C161.059 515.537 160.527 515.003 159.871 515.003C159.215 515.003 158.684 515.537 158.684 516.197V537.249C158.684 537.908 159.215 538.443 159.871 538.443C160.527 538.443 161.059 537.908 161.059 537.249V516.197Z" fill="white"/>
<path d="M217 525.529H196.049C195.393 525.529 194.861 526.064 194.861 526.723C194.861 527.382 195.393 527.916 196.049 527.916H217C217.656 527.916 218.188 527.382 218.188 526.723C218.188 526.064 217.656 525.529 217 525.529Z" fill="white"/>
<path d="M207.713 516.197C207.713 515.537 207.181 515.003 206.525 515.003C205.869 515.003 205.337 515.537 205.337 516.197V537.249C205.337 537.908 205.869 538.443 206.525 538.443C207.181 538.443 207.713 537.908 207.713 537.249V516.197Z" fill="white"/>
<path d="M263.655 525.529H242.703C242.047 525.529 241.516 526.064 241.516 526.723C241.516 527.382 242.047 527.916 242.703 527.916H263.655C264.311 527.916 264.842 527.382 264.842 526.723C264.842 526.064 264.311 525.529 263.655 525.529Z" fill="white"/>
<path d="M254.367 516.197C254.367 515.537 253.835 515.003 253.179 515.003C252.523 515.003 251.991 515.537 251.991 516.197V537.249C251.991 537.908 252.523 538.443 253.179 538.443C253.835 538.443 254.367 537.908 254.367 537.249V516.197Z" fill="white"/>
<path d="M310.308 525.529H289.357C288.701 525.529 288.169 526.064 288.169 526.723C288.169 527.382 288.701 527.916 289.357 527.916H310.308C310.964 527.916 311.496 527.382 311.496 526.723C311.496 526.064 310.964 525.529 310.308 525.529Z" fill="white"/>
<path d="M301.02 516.197C301.02 515.537 300.488 515.003 299.832 515.003C299.176 515.003 298.645 515.537 298.645 516.197V537.249C298.645 537.908 299.176 538.443 299.832 538.443C300.488 538.443 301.02 537.908 301.02 537.249V516.197Z" fill="white"/>
<path d="M356.961 525.529H336.01C335.354 525.529 334.822 526.064 334.822 526.723C334.822 527.382 335.354 527.916 336.01 527.916H356.961C357.617 527.916 358.149 527.382 358.149 526.723C358.149 526.064 357.617 525.529 356.961 525.529Z" fill="white"/>
<path d="M347.674 516.197C347.674 515.537 347.143 515.003 346.487 515.003C345.831 515.003 345.299 515.537 345.299 516.197V537.249C345.299 537.908 345.831 538.443 346.487 538.443C347.143 538.443 347.674 537.908 347.674 537.249V516.197Z" fill="white"/>
<path d="M403.616 525.529H382.664C382.008 525.529 381.477 526.064 381.477 526.723C381.477 527.382 382.008 527.916 382.664 527.916H403.616C404.272 527.916 404.803 527.382 404.803 526.723C404.803 526.064 404.272 525.529 403.616 525.529Z" fill="white"/>
<path d="M394.328 516.197C394.328 515.537 393.796 515.003 393.14 515.003C392.484 515.003 391.952 515.537 391.952 516.197V537.249C391.952 537.908 392.484 538.443 393.14 538.443C393.796 538.443 394.328 537.908 394.328 537.249V516.197Z" fill="white"/>
<path d="M450.269 525.529H429.318C428.662 525.529 428.13 526.064 428.13 526.723C428.13 527.382 428.662 527.916 429.318 527.916H450.269C450.925 527.916 451.457 527.382 451.457 526.723C451.457 526.064 450.925 525.529 450.269 525.529Z" fill="white"/>
<path d="M440.981 516.197C440.981 515.537 440.449 515.003 439.793 515.003C439.137 515.003 438.605 515.537 438.605 516.197V537.249C438.605 537.908 439.137 538.443 439.793 538.443C440.449 538.443 440.981 537.908 440.981 537.249V516.197Z" fill="white"/>
<path d="M30.3851 572.409H9.43392C8.7779 572.409 8.24609 572.943 8.24609 573.602C8.24609 574.261 8.7779 574.796 9.43392 574.796H30.3851C31.0412 574.796 31.573 574.261 31.573 573.602C31.573 572.943 31.0412 572.409 30.3851 572.409Z" fill="white"/>
<path d="M21.0983 563.076C21.0983 562.417 20.5665 561.883 19.9105 561.883C19.2545 561.883 18.7227 562.417 18.7227 563.076V584.129C18.7227 584.788 19.2545 585.323 19.9105 585.323C20.5665 585.323 21.0983 584.788 21.0983 584.129V563.076Z" fill="white"/>
<path d="M77.0394 572.409H56.0882C55.4322 572.409 54.9004 572.943 54.9004 573.602C54.9004 574.261 55.4322 574.796 56.0882 574.796H77.0394C77.6955 574.796 78.2273 574.261 78.2273 573.602C78.2273 572.943 77.6955 572.409 77.0394 572.409Z" fill="white"/>
<path d="M67.7516 563.076C67.7516 562.417 67.2198 561.883 66.5638 561.883C65.9078 561.883 65.376 562.417 65.376 563.076V584.129C65.376 584.788 65.9078 585.323 66.5638 585.323C67.2198 585.323 67.7516 584.788 67.7516 584.129V563.076Z" fill="white"/>
<path d="M123.693 572.409H102.742C102.086 572.409 101.554 572.943 101.554 573.602C101.554 574.261 102.086 574.796 102.742 574.796H123.693C124.349 574.796 124.881 574.261 124.881 573.602C124.881 572.943 124.349 572.409 123.693 572.409Z" fill="white"/>
<path d="M114.405 563.076C114.405 562.417 113.873 561.883 113.217 561.883C112.561 561.883 112.029 562.417 112.029 563.076V584.129C112.029 584.788 112.561 585.323 113.217 585.323C113.873 585.323 114.405 584.788 114.405 584.129V563.076Z" fill="white"/>
<path d="M170.347 572.409H149.396C148.74 572.409 148.208 572.943 148.208 573.602C148.208 574.261 148.74 574.796 149.396 574.796H170.347C171.003 574.796 171.535 574.261 171.535 573.602C171.535 572.943 171.003 572.409 170.347 572.409Z" fill="white"/>
<path d="M161.059 563.076C161.059 562.417 160.527 561.883 159.871 561.883C159.215 561.883 158.684 562.417 158.684 563.076V584.129C158.684 584.788 159.215 585.323 159.871 585.323C160.527 585.323 161.059 584.788 161.059 584.129V563.076Z" fill="white"/>
<path d="M217 572.409H196.049C195.393 572.409 194.861 572.943 194.861 573.602C194.861 574.261 195.393 574.796 196.049 574.796H217C217.656 574.796 218.188 574.261 218.188 573.602C218.188 572.943 217.656 572.409 217 572.409Z" fill="white"/>
<path d="M207.713 563.076C207.713 562.417 207.181 561.883 206.525 561.883C205.869 561.883 205.337 562.417 205.337 563.076V584.129C205.337 584.788 205.869 585.323 206.525 585.323C207.181 585.323 207.713 584.788 207.713 584.129V563.076Z" fill="white"/>
<path d="M263.655 572.409H242.703C242.047 572.409 241.516 572.943 241.516 573.602C241.516 574.261 242.047 574.796 242.703 574.796H263.655C264.311 574.796 264.842 574.261 264.842 573.602C264.842 572.943 264.311 572.409 263.655 572.409Z" fill="white"/>
<path d="M254.367 563.076C254.367 562.417 253.835 561.883 253.179 561.883C252.523 561.883 251.991 562.417 251.991 563.076V584.129C251.991 584.788 252.523 585.323 253.179 585.323C253.835 585.323 254.367 584.788 254.367 584.129V563.076Z" fill="white"/>
<path d="M310.308 572.409H289.357C288.701 572.409 288.169 572.943 288.169 573.602C288.169 574.261 288.701 574.796 289.357 574.796H310.308C310.964 574.796 311.496 574.261 311.496 573.602C311.496 572.943 310.964 572.409 310.308 572.409Z" fill="white"/>
<path d="M301.02 563.076C301.02 562.417 300.488 561.883 299.832 561.883C299.176 561.883 298.645 562.417 298.645 563.076V584.129C298.645 584.788 299.176 585.323 299.832 585.323C300.488 585.323 301.02 584.788 301.02 584.129V563.076Z" fill="white"/>
<path d="M356.961 572.409H336.01C335.354 572.409 334.822 572.943 334.822 573.602C334.822 574.261 335.354 574.796 336.01 574.796H356.961C357.617 574.796 358.149 574.261 358.149 573.602C358.149 572.943 357.617 572.409 356.961 572.409Z" fill="white"/>
<path d="M347.674 563.076C347.674 562.417 347.143 561.883 346.487 561.883C345.831 561.883 345.299 562.417 345.299 563.076V584.129C345.299 584.788 345.831 585.323 346.487 585.323C347.143 585.323 347.674 584.788 347.674 584.129V563.076Z" fill="white"/>
<path d="M403.616 572.409H382.664C382.008 572.409 381.477 572.943 381.477 573.602C381.477 574.261 382.008 574.796 382.664 574.796H403.616C404.272 574.796 404.803 574.261 404.803 573.602C404.803 572.943 404.272 572.409 403.616 572.409Z" fill="white"/>
<path d="M394.328 563.076C394.328 562.417 393.796 561.883 393.14 561.883C392.484 561.883 391.952 562.417 391.952 563.076V584.129C391.952 584.788 392.484 585.323 393.14 585.323C393.796 585.323 394.328 584.788 394.328 584.129V563.076Z" fill="white"/>
<path d="M450.269 572.409H429.318C428.662 572.409 428.13 572.943 428.13 573.602C428.13 574.261 428.662 574.796 429.318 574.796H450.269C450.925 574.796 451.457 574.261 451.457 573.602C451.457 572.943 450.925 572.409 450.269 572.409Z" fill="white"/>
<path d="M440.981 563.076C440.981 562.417 440.449 561.883 439.793 561.883C439.137 561.883 438.605 562.417 438.605 563.076V584.129C438.605 584.788 439.137 585.323 439.793 585.323C440.449 585.323 440.981 584.788 440.981 584.129V563.076Z" fill="white"/>
<path d="M30.3851 619.289H9.43392C8.7779 619.289 8.24609 619.823 8.24609 620.482C8.24609 621.141 8.7779 621.676 9.43392 621.676H30.3851C31.0412 621.676 31.573 621.141 31.573 620.482C31.573 619.823 31.0412 619.289 30.3851 619.289Z" fill="white"/>
<path d="M21.0983 609.956C21.0983 609.297 20.5665 608.762 19.9105 608.762C19.2545 608.762 18.7227 609.297 18.7227 609.956V631.008C18.7227 631.668 19.2545 632.202 19.9105 632.202C20.5665 632.202 21.0983 631.668 21.0983 631.008V609.956Z" fill="white"/>
<path d="M77.0394 619.289H56.0882C55.4322 619.289 54.9004 619.823 54.9004 620.482C54.9004 621.141 55.4322 621.676 56.0882 621.676H77.0394C77.6955 621.676 78.2273 621.141 78.2273 620.482C78.2273 619.823 77.6955 619.289 77.0394 619.289Z" fill="white"/>
<path d="M67.7516 609.956C67.7516 609.297 67.2198 608.762 66.5638 608.762C65.9078 608.762 65.376 609.297 65.376 609.956V631.008C65.376 631.668 65.9078 632.202 66.5638 632.202C67.2198 632.202 67.7516 631.668 67.7516 631.008V609.956Z" fill="white"/>
<path d="M123.693 619.289H102.742C102.086 619.289 101.554 619.823 101.554 620.482C101.554 621.141 102.086 621.676 102.742 621.676H123.693C124.349 621.676 124.881 621.141 124.881 620.482C124.881 619.823 124.349 619.289 123.693 619.289Z" fill="white"/>
<path d="M114.405 609.956C114.405 609.297 113.873 608.762 113.217 608.762C112.561 608.762 112.029 609.297 112.029 609.956V631.008C112.029 631.668 112.561 632.202 113.217 632.202C113.873 632.202 114.405 631.668 114.405 631.008V609.956Z" fill="white"/>
<path d="M170.347 619.289H149.396C148.74 619.289 148.208 619.823 148.208 620.482C148.208 621.141 148.74 621.676 149.396 621.676H170.347C171.003 621.676 171.535 621.141 171.535 620.482C171.535 619.823 171.003 619.289 170.347 619.289Z" fill="white"/>
<path d="M161.059 609.956C161.059 609.297 160.527 608.762 159.871 608.762C159.215 608.762 158.684 609.297 158.684 609.956V631.008C158.684 631.668 159.215 632.202 159.871 632.202C160.527 632.202 161.059 631.668 161.059 631.008V609.956Z" fill="white"/>
<path d="M217 619.289H196.049C195.393 619.289 194.861 619.823 194.861 620.482C194.861 621.141 195.393 621.676 196.049 621.676H217C217.656 621.676 218.188 621.141 218.188 620.482C218.188 619.823 217.656 619.289 217 619.289Z" fill="white"/>
<path d="M207.713 609.956C207.713 609.297 207.181 608.762 206.525 608.762C205.869 608.762 205.337 609.297 205.337 609.956V631.008C205.337 631.668 205.869 632.202 206.525 632.202C207.181 632.202 207.713 631.668 207.713 631.008V609.956Z" fill="white"/>
<path d="M263.655 619.289H242.703C242.047 619.289 241.516 619.823 241.516 620.482C241.516 621.141 242.047 621.676 242.703 621.676H263.655C264.311 621.676 264.842 621.141 264.842 620.482C264.842 619.823 264.311 619.289 263.655 619.289Z" fill="white"/>
<path d="M254.367 609.956C254.367 609.297 253.835 608.762 253.179 608.762C252.523 608.762 251.991 609.297 251.991 609.956V631.008C251.991 631.668 252.523 632.202 253.179 632.202C253.835 632.202 254.367 631.668 254.367 631.008V609.956Z" fill="white"/>
<path d="M310.308 619.289H289.357C288.701 619.289 288.169 619.823 288.169 620.482C288.169 621.141 288.701 621.676 289.357 621.676H310.308C310.964 621.676 311.496 621.141 311.496 620.482C311.496 619.823 310.964 619.289 310.308 619.289Z" fill="white"/>
<path d="M301.02 609.956C301.02 609.297 300.488 608.762 299.832 608.762C299.176 608.762 298.645 609.297 298.645 609.956V631.008C298.645 631.668 299.176 632.202 299.832 632.202C300.488 632.202 301.02 631.668 301.02 631.008V609.956Z" fill="white"/>
<path d="M356.961 619.289H336.01C335.354 619.289 334.822 619.823 334.822 620.482C334.822 621.141 335.354 621.676 336.01 621.676H356.961C357.617 621.676 358.149 621.141 358.149 620.482C358.149 619.823 357.617 619.289 356.961 619.289Z" fill="white"/>
<path d="M347.674 609.956C347.674 609.297 347.143 608.762 346.487 608.762C345.831 608.762 345.299 609.297 345.299 609.956V631.008C345.299 631.668 345.831 632.202 346.487 632.202C347.143 632.202 347.674 631.668 347.674 631.008V609.956Z" fill="white"/>
<path d="M403.616 619.289H382.664C382.008 619.289 381.477 619.823 381.477 620.482C381.477 621.141 382.008 621.676 382.664 621.676H403.616C404.272 621.676 404.803 621.141 404.803 620.482C404.803 619.823 404.272 619.289 403.616 619.289Z" fill="white"/>
<path d="M394.328 609.956C394.328 609.297 393.796 608.762 393.14 608.762C392.484 608.762 391.952 609.297 391.952 609.956V631.008C391.952 631.668 392.484 632.202 393.14 632.202C393.796 632.202 394.328 631.668 394.328 631.008V609.956Z" fill="white"/>
<path d="M450.269 619.289H429.318C428.662 619.289 428.13 619.823 428.13 620.482C428.13 621.141 428.662 621.676 429.318 621.676H450.269C450.925 621.676 451.457 621.141 451.457 620.482C451.457 619.823 450.925 619.289 450.269 619.289Z" fill="white"/>
<path d="M440.981 609.956C440.981 609.297 440.449 608.762 439.793 608.762C439.137 608.762 438.605 609.297 438.605 609.956V631.008C438.605 631.668 439.137 632.202 439.793 632.202C440.449 632.202 440.981 631.668 440.981 631.008V609.956Z" fill="white"/>
<path d="M30.3851 666.168H9.43392C8.7779 666.168 8.24609 666.702 8.24609 667.362C8.24609 668.021 8.7779 668.555 9.43392 668.555H30.3851C31.0412 668.555 31.573 668.021 31.573 667.362C31.573 666.702 31.0412 666.168 30.3851 666.168Z" fill="white"/>
<path d="M21.0983 656.835C21.0983 656.176 20.5665 655.642 19.9105 655.642C19.2545 655.642 18.7227 656.176 18.7227 656.835V677.888C18.7227 678.547 19.2545 679.081 19.9105 679.081C20.5665 679.081 21.0983 678.547 21.0983 677.888V656.835Z" fill="white"/>
<path d="M77.0394 666.168H56.0882C55.4322 666.168 54.9004 666.702 54.9004 667.362C54.9004 668.021 55.4322 668.555 56.0882 668.555H77.0394C77.6955 668.555 78.2273 668.021 78.2273 667.362C78.2273 666.702 77.6955 666.168 77.0394 666.168Z" fill="white"/>
<path d="M67.7516 656.835C67.7516 656.176 67.2198 655.642 66.5638 655.642C65.9078 655.642 65.376 656.176 65.376 656.835V677.888C65.376 678.547 65.9078 679.081 66.5638 679.081C67.2198 679.081 67.7516 678.547 67.7516 677.888V656.835Z" fill="white"/>
<path d="M123.693 666.168H102.742C102.086 666.168 101.554 666.702 101.554 667.362C101.554 668.021 102.086 668.555 102.742 668.555H123.693C124.349 668.555 124.881 668.021 124.881 667.362C124.881 666.702 124.349 666.168 123.693 666.168Z" fill="white"/>
<path d="M114.405 656.835C114.405 656.176 113.873 655.642 113.217 655.642C112.561 655.642 112.029 656.176 112.029 656.835V677.888C112.029 678.547 112.561 679.081 113.217 679.081C113.873 679.081 114.405 678.547 114.405 677.888V656.835Z" fill="white"/>
<path d="M170.347 666.168H149.396C148.74 666.168 148.208 666.702 148.208 667.362C148.208 668.021 148.74 668.555 149.396 668.555H170.347C171.003 668.555 171.535 668.021 171.535 667.362C171.535 666.702 171.003 666.168 170.347 666.168Z" fill="white"/>
<path d="M161.059 656.835C161.059 656.176 160.527 655.642 159.871 655.642C159.215 655.642 158.684 656.176 158.684 656.835V677.888C158.684 678.547 159.215 679.081 159.871 679.081C160.527 679.081 161.059 678.547 161.059 677.888V656.835Z" fill="white"/>
<path d="M217 666.168H196.049C195.393 666.168 194.861 666.702 194.861 667.362C194.861 668.021 195.393 668.555 196.049 668.555H217C217.656 668.555 218.188 668.021 218.188 667.362C218.188 666.702 217.656 666.168 217 666.168Z" fill="white"/>
<path d="M207.713 656.835C207.713 656.176 207.181 655.642 206.525 655.642C205.869 655.642 205.337 656.176 205.337 656.835V677.888C205.337 678.547 205.869 679.081 206.525 679.081C207.181 679.081 207.713 678.547 207.713 677.888V656.835Z" fill="white"/>
<path d="M263.655 666.168H242.703C242.047 666.168 241.516 666.702 241.516 667.362C241.516 668.021 242.047 668.555 242.703 668.555H263.655C264.311 668.555 264.842 668.021 264.842 667.362C264.842 666.702 264.311 666.168 263.655 666.168Z" fill="white"/>
<path d="M254.367 656.835C254.367 656.176 253.835 655.642 253.179 655.642C252.523 655.642 251.991 656.176 251.991 656.835V677.888C251.991 678.547 252.523 679.081 253.179 679.081C253.835 679.081 254.367 678.547 254.367 677.888V656.835Z" fill="white"/>
<path d="M310.308 666.168H289.357C288.701 666.168 288.169 666.702 288.169 667.362C288.169 668.021 288.701 668.555 289.357 668.555H310.308C310.964 668.555 311.496 668.021 311.496 667.362C311.496 666.702 310.964 666.168 310.308 666.168Z" fill="white"/>
<path d="M301.02 656.835C301.02 656.176 300.488 655.642 299.832 655.642C299.176 655.642 298.645 656.176 298.645 656.835V677.888C298.645 678.547 299.176 679.081 299.832 679.081C300.488 679.081 301.02 678.547 301.02 677.888V656.835Z" fill="white"/>
<path d="M356.961 666.168H336.01C335.354 666.168 334.822 666.702 334.822 667.362C334.822 668.021 335.354 668.555 336.01 668.555H356.961C357.617 668.555 358.149 668.021 358.149 667.362C358.149 666.702 357.617 666.168 356.961 666.168Z" fill="white"/>
<path d="M347.674 656.835C347.674 656.176 347.143 655.642 346.487 655.642C345.831 655.642 345.299 656.176 345.299 656.835V677.888C345.299 678.547 345.831 679.081 346.487 679.081C347.143 679.081 347.674 678.547 347.674 677.888V656.835Z" fill="white"/>
<path d="M403.616 666.168H382.664C382.008 666.168 381.477 666.702 381.477 667.362C381.477 668.021 382.008 668.555 382.664 668.555H403.616C404.272 668.555 404.803 668.021 404.803 667.362C404.803 666.702 404.272 666.168 403.616 666.168Z" fill="white"/>
<path d="M394.328 656.835C394.328 656.176 393.796 655.642 393.14 655.642C392.484 655.642 391.952 656.176 391.952 656.835V677.888C391.952 678.547 392.484 679.081 393.14 679.081C393.796 679.081 394.328 678.547 394.328 677.888V656.835Z" fill="white"/>
<path d="M450.269 666.168H429.318C428.662 666.168 428.13 666.702 428.13 667.362C428.13 668.021 428.662 668.555 429.318 668.555H450.269C450.925 668.555 451.457 668.021 451.457 667.362C451.457 666.702 450.925 666.168 450.269 666.168Z" fill="white"/>
<path d="M440.981 656.835C440.981 656.176 440.449 655.642 439.793 655.642C439.137 655.642 438.605 656.176 438.605 656.835V677.888C438.605 678.547 439.137 679.081 439.793 679.081C440.449 679.081 440.981 678.547 440.981 677.888V656.835Z" fill="white"/>
<path d="M30.3851 713.047H9.43392C8.7779 713.047 8.24609 713.582 8.24609 714.241C8.24609 714.9 8.7779 715.434 9.43392 715.434H30.3851C31.0412 715.434 31.573 714.9 31.573 714.241C31.573 713.582 31.0412 713.047 30.3851 713.047Z" fill="white"/>
<path d="M21.0983 703.715C21.0983 703.055 20.5665 702.521 19.9105 702.521C19.2545 702.521 18.7227 703.055 18.7227 703.715V724.767C18.7227 725.426 19.2545 725.961 19.9105 725.961C20.5665 725.961 21.0983 725.426 21.0983 724.767V703.715Z" fill="white"/>
<path d="M77.0394 713.047H56.0882C55.4322 713.047 54.9004 713.582 54.9004 714.241C54.9004 714.9 55.4322 715.434 56.0882 715.434H77.0394C77.6955 715.434 78.2273 714.9 78.2273 714.241C78.2273 713.582 77.6955 713.047 77.0394 713.047Z" fill="white"/>
<path d="M67.7516 703.715C67.7516 703.055 67.2198 702.521 66.5638 702.521C65.9078 702.521 65.376 703.055 65.376 703.715V724.767C65.376 725.426 65.9078 725.961 66.5638 725.961C67.2198 725.961 67.7516 725.426 67.7516 724.767V703.715Z" fill="white"/>
<path d="M123.693 713.047H102.742C102.086 713.047 101.554 713.582 101.554 714.241C101.554 714.9 102.086 715.434 102.742 715.434H123.693C124.349 715.434 124.881 714.9 124.881 714.241C124.881 713.582 124.349 713.047 123.693 713.047Z" fill="white"/>
<path d="M114.405 703.715C114.405 703.055 113.873 702.521 113.217 702.521C112.561 702.521 112.029 703.055 112.029 703.715V724.767C112.029 725.426 112.561 725.961 113.217 725.961C113.873 725.961 114.405 725.426 114.405 724.767V703.715Z" fill="white"/>
<path d="M170.347 713.047H149.396C148.74 713.047 148.208 713.582 148.208 714.241C148.208 714.9 148.74 715.434 149.396 715.434H170.347C171.003 715.434 171.535 714.9 171.535 714.241C171.535 713.582 171.003 713.047 170.347 713.047Z" fill="white"/>
<path d="M161.059 703.715C161.059 703.055 160.527 702.521 159.871 702.521C159.215 702.521 158.684 703.055 158.684 703.715V724.767C158.684 725.426 159.215 725.961 159.871 725.961C160.527 725.961 161.059 725.426 161.059 724.767V703.715Z" fill="white"/>
<path d="M217 713.047H196.049C195.393 713.047 194.861 713.582 194.861 714.241C194.861 714.9 195.393 715.434 196.049 715.434H217C217.656 715.434 218.188 714.9 218.188 714.241C218.188 713.582 217.656 713.047 217 713.047Z" fill="white"/>
<path d="M207.713 703.715C207.713 703.055 207.181 702.521 206.525 702.521C205.869 702.521 205.337 703.055 205.337 703.715V724.767C205.337 725.426 205.869 725.961 206.525 725.961C207.181 725.961 207.713 725.426 207.713 724.767V703.715Z" fill="white"/>
<path d="M263.655 713.047H242.703C242.047 713.047 241.516 713.582 241.516 714.241C241.516 714.9 242.047 715.434 242.703 715.434H263.655C264.311 715.434 264.842 714.9 264.842 714.241C264.842 713.582 264.311 713.047 263.655 713.047Z" fill="white"/>
<path d="M254.367 703.715C254.367 703.055 253.835 702.521 253.179 702.521C252.523 702.521 251.991 703.055 251.991 703.715V724.767C251.991 725.426 252.523 725.961 253.179 725.961C253.835 725.961 254.367 725.426 254.367 724.767V703.715Z" fill="white"/>
<path d="M310.308 713.047H289.357C288.701 713.047 288.169 713.582 288.169 714.241C288.169 714.9 288.701 715.434 289.357 715.434H310.308C310.964 715.434 311.496 714.9 311.496 714.241C311.496 713.582 310.964 713.047 310.308 713.047Z" fill="white"/>
<path d="M301.02 703.715C301.02 703.055 300.488 702.521 299.832 702.521C299.176 702.521 298.645 703.055 298.645 703.715V724.767C298.645 725.426 299.176 725.961 299.832 725.961C300.488 725.961 301.02 725.426 301.02 724.767V703.715Z" fill="white"/>
<path d="M356.961 713.047H336.01C335.354 713.047 334.822 713.582 334.822 714.241C334.822 714.9 335.354 715.434 336.01 715.434H356.961C357.617 715.434 358.149 714.9 358.149 714.241C358.149 713.582 357.617 713.047 356.961 713.047Z" fill="white"/>
<path d="M347.674 703.715C347.674 703.055 347.143 702.521 346.487 702.521C345.831 702.521 345.299 703.055 345.299 703.715V724.767C345.299 725.426 345.831 725.961 346.487 725.961C347.143 725.961 347.674 725.426 347.674 724.767V703.715Z" fill="white"/>
<path d="M403.616 713.047H382.664C382.008 713.047 381.477 713.582 381.477 714.241C381.477 714.9 382.008 715.434 382.664 715.434H403.616C404.272 715.434 404.803 714.9 404.803 714.241C404.803 713.582 404.272 713.047 403.616 713.047Z" fill="white"/>
<path d="M394.328 703.715C394.328 703.055 393.796 702.521 393.14 702.521C392.484 702.521 391.952 703.055 391.952 703.715V724.767C391.952 725.426 392.484 725.961 393.14 725.961C393.796 725.961 394.328 725.426 394.328 724.767V703.715Z" fill="white"/>
<path d="M450.269 713.047H429.318C428.662 713.047 428.13 713.582 428.13 714.241C428.13 714.9 428.662 715.434 429.318 715.434H450.269C450.925 715.434 451.457 714.9 451.457 714.241C451.457 713.582 450.925 713.047 450.269 713.047Z" fill="white"/>
<path d="M440.981 703.715C440.981 703.055 440.449 702.521 439.793 702.521C439.137 702.521 438.605 703.055 438.605 703.715V724.767C438.605 725.426 439.137 725.961 439.793 725.961C440.449 725.961 440.981 725.426 440.981 724.767V703.715Z" fill="white"/>
<path d="M30.3851 759.927H9.43392C8.7779 759.927 8.24609 760.461 8.24609 761.12C8.24609 761.78 8.7779 762.314 9.43392 762.314H30.3851C31.0412 762.314 31.573 761.78 31.573 761.12C31.573 760.461 31.0412 759.927 30.3851 759.927Z" fill="white"/>
<path d="M21.0983 750.594C21.0983 749.935 20.5665 749.4 19.9105 749.4C19.2545 749.4 18.7227 749.935 18.7227 750.594V771.647C18.7227 772.306 19.2545 772.84 19.9105 772.84C20.5665 772.84 21.0983 772.306 21.0983 771.647V750.594Z" fill="white"/>
<path d="M77.0394 759.927H56.0882C55.4322 759.927 54.9004 760.461 54.9004 761.12C54.9004 761.78 55.4322 762.314 56.0882 762.314H77.0394C77.6955 762.314 78.2273 761.78 78.2273 761.12C78.2273 760.461 77.6955 759.927 77.0394 759.927Z" fill="white"/>
<path d="M67.7516 750.594C67.7516 749.935 67.2198 749.4 66.5638 749.4C65.9078 749.4 65.376 749.935 65.376 750.594V771.647C65.376 772.306 65.9078 772.84 66.5638 772.84C67.2198 772.84 67.7516 772.306 67.7516 771.647V750.594Z" fill="white"/>
<path d="M123.693 759.927H102.742C102.086 759.927 101.554 760.461 101.554 761.12C101.554 761.78 102.086 762.314 102.742 762.314H123.693C124.349 762.314 124.881 761.78 124.881 761.12C124.881 760.461 124.349 759.927 123.693 759.927Z" fill="white"/>
<path d="M114.405 750.594C114.405 749.935 113.873 749.4 113.217 749.4C112.561 749.4 112.029 749.935 112.029 750.594V771.647C112.029 772.306 112.561 772.84 113.217 772.84C113.873 772.84 114.405 772.306 114.405 771.647V750.594Z" fill="white"/>
<path d="M170.347 759.927H149.396C148.74 759.927 148.208 760.461 148.208 761.12C148.208 761.78 148.74 762.314 149.396 762.314H170.347C171.003 762.314 171.535 761.78 171.535 761.12C171.535 760.461 171.003 759.927 170.347 759.927Z" fill="white"/>
<path d="M161.059 750.594C161.059 749.935 160.527 749.4 159.871 749.4C159.215 749.4 158.684 749.935 158.684 750.594V771.647C158.684 772.306 159.215 772.84 159.871 772.84C160.527 772.84 161.059 772.306 161.059 771.647V750.594Z" fill="white"/>
<path d="M217 759.927H196.049C195.393 759.927 194.861 760.461 194.861 761.12C194.861 761.78 195.393 762.314 196.049 762.314H217C217.656 762.314 218.188 761.78 218.188 761.12C218.188 760.461 217.656 759.927 217 759.927Z" fill="white"/>
<path d="M207.713 750.594C207.713 749.935 207.181 749.4 206.525 749.4C205.869 749.4 205.337 749.935 205.337 750.594V771.647C205.337 772.306 205.869 772.84 206.525 772.84C207.181 772.84 207.713 772.306 207.713 771.647V750.594Z" fill="white"/>
<path d="M263.655 759.927H242.703C242.047 759.927 241.516 760.461 241.516 761.12C241.516 761.78 242.047 762.314 242.703 762.314H263.655C264.311 762.314 264.842 761.78 264.842 761.12C264.842 760.461 264.311 759.927 263.655 759.927Z" fill="white"/>
<path d="M254.367 750.594C254.367 749.935 253.835 749.4 253.179 749.4C252.523 749.4 251.991 749.935 251.991 750.594V771.647C251.991 772.306 252.523 772.84 253.179 772.84C253.835 772.84 254.367 772.306 254.367 771.647V750.594Z" fill="white"/>
<path d="M310.308 759.927H289.357C288.701 759.927 288.169 760.461 288.169 761.12C288.169 761.78 288.701 762.314 289.357 762.314H310.308C310.964 762.314 311.496 761.78 311.496 761.12C311.496 760.461 310.964 759.927 310.308 759.927Z" fill="white"/>
<path d="M301.02 750.594C301.02 749.935 300.488 749.4 299.832 749.4C299.176 749.4 298.645 749.935 298.645 750.594V771.647C298.645 772.306 299.176 772.84 299.832 772.84C300.488 772.84 301.02 772.306 301.02 771.647V750.594Z" fill="white"/>
<path d="M356.961 759.927H336.01C335.354 759.927 334.822 760.461 334.822 761.12C334.822 761.78 335.354 762.314 336.01 762.314H356.961C357.617 762.314 358.149 761.78 358.149 761.12C358.149 760.461 357.617 759.927 356.961 759.927Z" fill="white"/>
<path d="M347.674 750.594C347.674 749.935 347.143 749.4 346.487 749.4C345.831 749.4 345.299 749.935 345.299 750.594V771.647C345.299 772.306 345.831 772.84 346.487 772.84C347.143 772.84 347.674 772.306 347.674 771.647V750.594Z" fill="white"/>
<path d="M403.616 759.927H382.664C382.008 759.927 381.477 760.461 381.477 761.12C381.477 761.78 382.008 762.314 382.664 762.314H403.616C404.272 762.314 404.803 761.78 404.803 761.12C404.803 760.461 404.272 759.927 403.616 759.927Z" fill="white"/>
<path d="M394.328 750.594C394.328 749.935 393.796 749.4 393.14 749.4C392.484 749.4 391.952 749.935 391.952 750.594V771.647C391.952 772.306 392.484 772.84 393.14 772.84C393.796 772.84 394.328 772.306 394.328 771.647V750.594Z" fill="white"/>
<path d="M450.269 759.927H429.318C428.662 759.927 428.13 760.461 428.13 761.12C428.13 761.78 428.662 762.314 429.318 762.314H450.269C450.925 762.314 451.457 761.78 451.457 761.12C451.457 760.461 450.925 759.927 450.269 759.927Z" fill="white"/>
<path d="M440.981 750.594C440.981 749.935 440.449 749.4 439.793 749.4C439.137 749.4 438.605 749.935 438.605 750.594V771.647C438.605 772.306 439.137 772.84 439.793 772.84C440.449 772.84 440.981 772.306 440.981 771.647V750.594Z" fill="white"/>
<path d="M30.3851 806.807H9.43392C8.7779 806.807 8.24609 807.341 8.24609 808C8.24609 808.659 8.7779 809.194 9.43392 809.194H30.3851C31.0412 809.194 31.573 808.659 31.573 808C31.573 807.341 31.0412 806.807 30.3851 806.807Z" fill="white"/>
<path d="M21.0983 797.474C21.0983 796.815 20.5665 796.28 19.9105 796.28C19.2545 796.28 18.7227 796.815 18.7227 797.474V818.526C18.7227 819.186 19.2545 819.72 19.9105 819.72C20.5665 819.72 21.0983 819.186 21.0983 818.526V797.474Z" fill="white"/>
<path d="M77.0394 806.807H56.0882C55.4322 806.807 54.9004 807.341 54.9004 808C54.9004 808.659 55.4322 809.194 56.0882 809.194H77.0394C77.6955 809.194 78.2273 808.659 78.2273 808C78.2273 807.341 77.6955 806.807 77.0394 806.807Z" fill="white"/>
<path d="M67.7516 797.474C67.7516 796.815 67.2198 796.28 66.5638 796.28C65.9078 796.28 65.376 796.815 65.376 797.474V818.526C65.376 819.186 65.9078 819.72 66.5638 819.72C67.2198 819.72 67.7516 819.186 67.7516 818.526V797.474Z" fill="white"/>
<path d="M123.693 806.807H102.742C102.086 806.807 101.554 807.341 101.554 808C101.554 808.659 102.086 809.194 102.742 809.194H123.693C124.349 809.194 124.881 808.659 124.881 808C124.881 807.341 124.349 806.807 123.693 806.807Z" fill="white"/>
<path d="M114.405 797.474C114.405 796.815 113.873 796.28 113.217 796.28C112.561 796.28 112.029 796.815 112.029 797.474V818.526C112.029 819.186 112.561 819.72 113.217 819.72C113.873 819.72 114.405 819.186 114.405 818.526V797.474Z" fill="white"/>
<path d="M170.347 806.807H149.396C148.74 806.807 148.208 807.341 148.208 808C148.208 808.659 148.74 809.194 149.396 809.194H170.347C171.003 809.194 171.535 808.659 171.535 808C171.535 807.341 171.003 806.807 170.347 806.807Z" fill="white"/>
<path d="M161.059 797.474C161.059 796.815 160.527 796.28 159.871 796.28C159.215 796.28 158.684 796.815 158.684 797.474V818.526C158.684 819.186 159.215 819.72 159.871 819.72C160.527 819.72 161.059 819.186 161.059 818.526V797.474Z" fill="white"/>
<path d="M217 806.807H196.049C195.393 806.807 194.861 807.341 194.861 808C194.861 808.659 195.393 809.194 196.049 809.194H217C217.656 809.194 218.188 808.659 218.188 808C218.188 807.341 217.656 806.807 217 806.807Z" fill="white"/>
<path d="M207.713 797.474C207.713 796.815 207.181 796.28 206.525 796.28C205.869 796.28 205.337 796.815 205.337 797.474V818.526C205.337 819.186 205.869 819.72 206.525 819.72C207.181 819.72 207.713 819.186 207.713 818.526V797.474Z" fill="white"/>
<path d="M263.655 806.807H242.703C242.047 806.807 241.516 807.341 241.516 808C241.516 808.659 242.047 809.194 242.703 809.194H263.655C264.311 809.194 264.842 808.659 264.842 808C264.842 807.341 264.311 806.807 263.655 806.807Z" fill="white"/>
<path d="M254.367 797.474C254.367 796.815 253.835 796.28 253.179 796.28C252.523 796.28 251.991 796.815 251.991 797.474V818.526C251.991 819.186 252.523 819.72 253.179 819.72C253.835 819.72 254.367 819.186 254.367 818.526V797.474Z" fill="white"/>
<path d="M310.308 806.807H289.357C288.701 806.807 288.169 807.341 288.169 808C288.169 808.659 288.701 809.194 289.357 809.194H310.308C310.964 809.194 311.496 808.659 311.496 808C311.496 807.341 310.964 806.807 310.308 806.807Z" fill="white"/>
<path d="M301.02 797.474C301.02 796.815 300.488 796.28 299.832 796.28C299.176 796.28 298.645 796.815 298.645 797.474V818.526C298.645 819.186 299.176 819.72 299.832 819.72C300.488 819.72 301.02 819.186 301.02 818.526V797.474Z" fill="white"/>
<path d="M356.961 806.807H336.01C335.354 806.807 334.822 807.341 334.822 808C334.822 808.659 335.354 809.194 336.01 809.194H356.961C357.617 809.194 358.149 808.659 358.149 808C358.149 807.341 357.617 806.807 356.961 806.807Z" fill="white"/>
<path d="M347.674 797.474C347.674 796.815 347.143 796.28 346.487 796.28C345.831 796.28 345.299 796.815 345.299 797.474V818.526C345.299 819.186 345.831 819.72 346.487 819.72C347.143 819.72 347.674 819.186 347.674 818.526V797.474Z" fill="white"/>
<path d="M403.616 806.807H382.664C382.008 806.807 381.477 807.341 381.477 808C381.477 808.659 382.008 809.194 382.664 809.194H403.616C404.272 809.194 404.803 808.659 404.803 808C404.803 807.341 404.272 806.807 403.616 806.807Z" fill="white"/>
<path d="M394.328 797.474C394.328 796.815 393.796 796.28 393.14 796.28C392.484 796.28 391.952 796.815 391.952 797.474V818.526C391.952 819.186 392.484 819.72 393.14 819.72C393.796 819.72 394.328 819.186 394.328 818.526V797.474Z" fill="white"/>
<path d="M450.269 806.807H429.318C428.662 806.807 428.13 807.341 428.13 808C428.13 808.659 428.662 809.194 429.318 809.194H450.269C450.925 809.194 451.457 808.659 451.457 808C451.457 807.341 450.925 806.807 450.269 806.807Z" fill="white"/>
<path d="M440.981 797.474C440.981 796.815 440.449 796.28 439.793 796.28C439.137 796.28 438.605 796.815 438.605 797.474V818.526C438.605 819.186 439.137 819.72 439.793 819.72C440.449 819.72 440.981 819.186 440.981 818.526V797.474Z" fill="white"/>
</g>
<defs>
<clipPath id="clip0_366_2512">
<rect width="460" height="808" fill="white"/>
</clipPath>
</defs>
</svg>
